<svg width="151" height="274" viewBox="0 0 151 274" fill="none" xmlns="http://www.w3.org/2000/svg">
<path d="M1.85156 9.26562C2.875 9.26562 3.71094 8.4375 3.71094 7.41406C3.71094 6.39062 2.875 5.55469 1.85156 5.55469C0.828125 5.55469 0 6.39062 0 7.41406C0 8.4375 0.828125 9.26562 1.85156 9.26562ZM18.4453 11.2812C20.4844 11.2812 22.0938 10.0312 22.0938 8.07812C22.0938 4.42969 16.5312 5.26562 16.5312 2.82812C16.5312 1.89062 17.3125 1.22656 18.3359 1.22656C19.2656 1.22656 19.9766 1.66406 20.4453 2.53125L21.5859 1.82812C20.8672 0.554688 19.7344 0 18.3828 0C16.6094 0 15.1562 1.09375 15.1562 2.89062C15.1562 6.39062 20.7188 5.5 20.7188 8.19531C20.7188 9.25 19.8594 10.0547 18.4688 10.0547C17.0938 10.0547 16.0312 9.3125 15.8359 7.83594L14.4766 8.17969C14.8125 10.2109 16.5234 11.2812 18.4453 11.2812ZM26.625 11.3047C27.1094 11.3047 27.5781 11.2109 27.8281 11.1172L27.8203 9.91406C27.5938 10.0156 27.2109 10.1328 26.8516 10.1328C26.1328 10.1328 25.7188 9.75781 25.7188 8.77344V4.48438H27.8281V3.36719H25.7188V0.257812L24.4141 1.21094V3.36719H23.1094V4.48438H24.3984V8.99219C24.3984 10.4609 25.1953 11.3047 26.625 11.3047ZM32.5234 3.23438C31.0938 3.23438 30.1562 3.83594 29.3984 4.875L30.4141 5.60938C30.8828 4.88281 31.5469 4.39062 32.5391 4.39062C34.0156 4.39062 34.5156 5.10156 34.5234 6.625H32.3125C30.3906 6.625 29.0938 7.24219 29.0938 8.85938C29.0938 10.4062 30.25 11.3047 31.8359 11.3047C32.9062 11.3047 33.9844 10.7969 34.5391 9.78125L34.625 11.1719H35.7266V6.41406C35.7266 4.47656 34.5703 3.23438 32.5234 3.23438ZM32.0938 10.1719C31.0312 10.1719 30.4531 9.66406 30.4531 8.90625C30.4531 8.11719 31.0781 7.59375 32.3906 7.59375H34.5234V8.10156C34.2656 9.27344 33.4141 10.1719 32.0938 10.1719ZM38.1406 14.4062H39.5078V9.76562C40.0156 10.75 40.9922 11.3047 42.0938 11.3047C44.2344 11.3047 45.4297 9.47656 45.4297 7.27344C45.4297 5.07812 44.2344 3.23438 42.1172 3.23438C41.0234 3.23438 40.0156 3.78906 39.5078 4.77344V3.36719H38.1406V14.4062ZM41.7969 10.1016C40.2734 10.1016 39.3906 8.875 39.3906 7.27344C39.3906 5.66406 40.2734 4.46094 41.7969 4.46094C43.3203 4.46094 44.1016 5.6875 44.1016 7.27344C44.1016 8.85938 43.3203 10.1016 41.7969 10.1016ZM48.8984 11.3047C49.2734 11.3047 49.7422 11.2422 50.1016 11.1641L50.0938 10.0469C49.8672 10.0859 49.6484 10.1094 49.4922 10.1094C48.8516 10.1094 48.7188 9.72656 48.7188 9.20312V0.132812H47.3906V9.55469C47.3906 10.75 47.8594 11.3047 48.8984 11.3047ZM54.8906 11.3047C56.1641 11.3047 57.1016 10.8984 57.9688 9.96875L57.0469 9.16406C56.3984 9.85156 55.7578 10.1016 54.8984 10.1016C53.4375 10.1016 52.6484 9.16406 52.5469 7.66406H58.1641C58.1953 7.54688 58.2266 7.23438 58.2266 6.94531C58.2266 5.33594 57.375 3.23438 54.7578 3.23438C52.3672 3.23438 51.1484 5.15625 51.1484 7.30469C51.1484 9.5 52.4219 11.3047 54.8906 11.3047ZM52.5469 6.69531C52.6953 5.32812 53.4297 4.35156 54.75 4.35156C56.0625 4.35156 56.75 5.23438 56.8828 6.20312C56.9141 6.35938 56.9141 6.52344 56.9141 6.69531H52.5469ZM62.5 11.3047C64.0078 11.3047 65.3672 10.5078 65.3672 8.86719C65.3672 5.92188 61 6.98438 61 5.29688C61 4.71094 61.5547 4.28906 62.4375 4.28906C63.3516 4.28906 63.9297 4.8125 64.2734 5.4375L65.2969 4.88281C64.7344 3.84375 63.75 3.23438 62.4844 3.23438C60.9844 3.23438 59.7344 4 59.7344 5.46875C59.7344 8.27344 64.0625 7.07812 64.0625 8.92969C64.0625 9.61719 63.5156 10.1953 62.4375 10.1953C61.2891 10.1953 60.6328 9.47656 60.3672 8.73438L59.2969 9.20312C59.6875 10.3906 60.9219 11.3047 62.5 11.3047ZM1.85156 46.2656C2.875 46.2656 3.71094 45.4375 3.71094 44.4141C3.71094 43.3906 2.875 42.5547 1.85156 42.5547C0.828125 42.5547 0 43.3906 0 44.4141C0 45.4375 0.828125 46.2656 1.85156 46.2656ZM15.5 48.1719H19.3828C21.3828 48.1719 22.9297 47.0703 22.9297 45.0703C22.9297 43.7812 22.1328 42.6406 20.9766 42.3125C21.7422 41.9766 22.3906 41.1016 22.3906 40.0156C22.3906 37.9531 20.7969 37.1328 19.0078 37.1328H15.5V48.1719ZM16.875 41.8438V38.3828H19.0312C20.3047 38.3828 21.1172 38.9531 21.1172 40.0938C21.1172 41.3047 20.2734 41.8438 19.2969 41.8438H16.875ZM16.875 46.8594V43.0391H19.5625C20.8125 43.0391 21.5703 43.8203 21.5703 44.9219C21.5703 46.2109 20.8125 46.8594 19.3984 46.8594H16.875ZM28.2812 48.3047C29.5547 48.3047 30.4922 47.8984 31.3594 46.9688L30.4375 46.1641C29.7891 46.8516 29.1484 47.1016 28.2891 47.1016C26.8281 47.1016 26.0391 46.1641 25.9375 44.6641H31.5547C31.5859 44.5469 31.6172 44.2344 31.6172 43.9453C31.6172 42.3359 30.7656 40.2344 28.1484 40.2344C25.7578 40.2344 24.5391 42.1562 24.5391 44.3047C24.5391 46.5 25.8125 48.3047 28.2812 48.3047ZM25.9375 43.6953C26.0859 42.3281 26.8203 41.3516 28.1406 41.3516C29.4531 41.3516 30.1406 42.2344 30.2734 43.2031C30.3047 43.3594 30.3047 43.5234 30.3047 43.6953H25.9375ZM35.4453 48.1719H36.5547L39.75 40.3672H38.3047L36 46.4766L33.7031 40.3672H32.2578L35.4453 48.1719ZM44.0781 48.3047C45.3516 48.3047 46.2891 47.8984 47.1562 46.9688L46.2344 46.1641C45.5859 46.8516 44.9453 47.1016 44.0859 47.1016C42.625 47.1016 41.8359 46.1641 41.7344 44.6641H47.3516C47.3828 44.5469 47.4141 44.2344 47.4141 43.9453C47.4141 42.3359 46.5625 40.2344 43.9453 40.2344C41.5547 40.2344 40.3359 42.1562 40.3359 44.3047C40.3359 46.5 41.6094 48.3047 44.0781 48.3047ZM41.7344 43.6953C41.8828 42.3281 42.6172 41.3516 43.9375 41.3516C45.25 41.3516 45.9375 42.2344 46.0703 43.2031C46.1016 43.3594 46.1016 43.5234 46.1016 43.6953H41.7344ZM49.3594 48.1719H50.6406V44.4141C50.6406 42.3438 51.7734 41.5234 52.7578 41.5234C53.0703 41.5234 53.3672 41.6094 53.6328 41.7578L54.2422 40.6641C53.8906 40.3672 53.4141 40.2344 52.9531 40.2344C52.0391 40.2344 51.0234 40.7734 50.6484 41.8984V40.3672H49.3594V48.1719ZM58.3828 40.2344C56.9531 40.2344 56.0156 40.8359 55.2578 41.875L56.2734 42.6094C56.7422 41.8828 57.4062 41.3906 58.3984 41.3906C59.875 41.3906 60.375 42.1016 60.3828 43.625H58.1719C56.25 43.625 54.9531 44.2422 54.9531 45.8594C54.9531 47.4062 56.1094 48.3047 57.6953 48.3047C58.7656 48.3047 59.8438 47.7969 60.3984 46.7812L60.4844 48.1719H61.5859V43.4141C61.5859 41.4766 60.4297 40.2344 58.3828 40.2344ZM57.9531 47.1719C56.8906 47.1719 56.3125 46.6641 56.3125 45.9062C56.3125 45.1172 56.9375 44.5938 58.25 44.5938H60.3828V45.1016C60.125 46.2734 59.2734 47.1719 57.9531 47.1719ZM67.0938 47.1406C65.7031 46.9453 64.6641 46.8594 64.6641 46.0703C64.6641 45.7656 64.8203 45.5469 65.1484 45.3906C65.6094 45.625 66.1484 45.7578 66.7422 45.7578C68.4141 45.7578 69.75 44.6953 69.75 43.0469C69.75 42.5078 69.6094 42.0156 69.3594 41.6094L70.4297 40.7188L69.7422 39.8594L68.6328 40.8203C68.1094 40.4453 67.4375 40.2344 66.7031 40.2344C65.0156 40.2344 63.6641 41.3594 63.6641 42.9766C63.6641 43.6719 63.9062 44.2812 64.3281 44.7578C63.8047 45.1406 63.5234 45.625 63.5234 46.2969C63.5234 47.0703 63.9141 47.5234 64.4531 47.8047L63.375 48.7656C63.3594 48.8672 63.3516 48.9609 63.3516 49.1094C63.3516 50.6719 64.6406 51.7969 66.9375 51.7969C68.8516 51.7969 70.2578 50.9531 70.2578 49.3438C70.2578 47.6328 68.6328 47.3672 67.0938 47.1406ZM66.75 41.2656C67.7969 41.2656 68.4375 41.9766 68.4375 42.9922C68.4375 43.9766 67.8047 44.6719 66.7422 44.6719C65.6719 44.6719 65.0312 43.9766 65.0312 42.9844C65.0312 41.9844 65.6953 41.2656 66.75 41.2656ZM66.9297 50.7578C65.6719 50.7578 64.7188 50.2656 64.5625 49.2812L64.5391 49.0469L65.2734 48.0859C65.7266 48.1875 66.2031 48.2422 66.6328 48.2969C68.0625 48.4766 69 48.625 69 49.4844C69 50.2969 68.1875 50.7578 66.9297 50.7578ZM75.2188 48.3047C76.4922 48.3047 77.4297 47.8984 78.2969 46.9688L77.375 46.1641C76.7266 46.8516 76.0859 47.1016 75.2266 47.1016C73.7656 47.1016 72.9766 46.1641 72.875 44.6641H78.4922C78.5234 44.5469 78.5547 44.2344 78.5547 43.9453C78.5547 42.3359 77.7031 40.2344 75.0859 40.2344C72.6953 40.2344 71.4766 42.1562 71.4766 44.3047C71.4766 46.5 72.75 48.3047 75.2188 48.3047ZM72.875 43.6953C73.0234 42.3281 73.7578 41.3516 75.0781 41.3516C76.3906 41.3516 77.0781 42.2344 77.2109 43.2031C77.2422 43.3594 77.2422 43.5234 77.2422 43.6953H72.875ZM82.8281 48.3047C84.3359 48.3047 85.6953 47.5078 85.6953 45.8672C85.6953 42.9219 81.3281 43.9844 81.3281 42.2969C81.3281 41.7109 81.8828 41.2891 82.7656 41.2891C83.6797 41.2891 84.2578 41.8125 84.6016 42.4375L85.625 41.8828C85.0625 40.8438 84.0781 40.2344 82.8125 40.2344C81.3125 40.2344 80.0625 41 80.0625 42.4688C80.0625 45.2734 84.3906 44.0781 84.3906 45.9297C84.3906 46.6172 83.8438 47.1953 82.7656 47.1953C81.6172 47.1953 80.9609 46.4766 80.6953 45.7344L79.625 46.2031C80.0156 47.3906 81.25 48.3047 82.8281 48.3047ZM1.85156 83.2656C2.875 83.2656 3.71094 82.4375 3.71094 81.4141C3.71094 80.3906 2.875 79.5547 1.85156 79.5547C0.828125 79.5547 0 80.3906 0 81.4141C0 82.4375 0.828125 83.2656 1.85156 83.2656ZM15.5 85.1719H16.8672V80.4219H18.6719C20.9297 80.4219 22.4531 79.3125 22.4531 77.3047C22.4531 75.2969 20.9062 74.1328 18.6719 74.1328H15.5V85.1719ZM16.8672 79.1328V75.4219H18.6719C20.2734 75.4219 21.0859 76.1172 21.0859 77.3047C21.0859 78.4922 20.3047 79.1328 18.6719 79.1328H16.8672ZM26.9219 85.3047C28.1953 85.3047 29.1328 84.8984 30 83.9688L29.0781 83.1641C28.4297 83.8516 27.7891 84.1016 26.9297 84.1016C25.4688 84.1016 24.6797 83.1641 24.5781 81.6641H30.1953C30.2266 81.5469 30.2578 81.2344 30.2578 80.9453C30.2578 79.3359 29.4062 77.2344 26.7891 77.2344C24.3984 77.2344 23.1797 79.1562 23.1797 81.3047C23.1797 83.5 24.4531 85.3047 26.9219 85.3047ZM24.5781 80.6953C24.7266 79.3281 25.4609 78.3516 26.7812 78.3516C28.0938 78.3516 28.7812 79.2344 28.9141 80.2031C28.9453 80.3594 28.9453 80.5234 28.9453 80.6953H24.5781ZM32.2031 85.1719H33.4844V81.4141C33.4844 79.3438 34.6172 78.5234 35.6016 78.5234C35.9141 78.5234 36.2109 78.6094 36.4766 78.7578L37.0859 77.6641C36.7344 77.3672 36.2578 77.2344 35.7969 77.2344C34.8828 77.2344 33.8672 77.7734 33.4922 78.8984V77.3672H32.2031V85.1719ZM40.4688 85.3047C41.9766 85.3047 43.3359 84.5078 43.3359 82.8672C43.3359 79.9219 38.9688 80.9844 38.9688 79.2969C38.9688 78.7109 39.5234 78.2891 40.4062 78.2891C41.3203 78.2891 41.8984 78.8125 42.2422 79.4375L43.2656 78.8828C42.7031 77.8438 41.7188 77.2344 40.4531 77.2344C38.9531 77.2344 37.7031 78 37.7031 79.4688C37.7031 82.2734 42.0312 81.0781 42.0312 82.9297C42.0312 83.6172 41.4844 84.1953 40.4062 84.1953C39.2578 84.1953 38.6016 83.4766 38.3359 82.7344L37.2656 83.2031C37.6562 84.3906 38.8906 85.3047 40.4688 85.3047ZM48.4375 85.3047C50.7266 85.3047 52.2969 83.4844 52.2969 81.25C52.2969 79.0312 50.7266 77.2344 48.4375 77.2344C46.1484 77.2344 44.5938 79.0312 44.5938 81.25C44.5938 83.4844 46.1484 85.3047 48.4375 85.3047ZM48.4375 84.1562C46.8359 84.1562 45.9688 82.8359 45.9688 81.25C45.9688 79.6719 46.8359 78.3828 48.4375 78.3828C50.0469 78.3828 50.9219 79.6797 50.9219 81.25C50.9219 82.8281 50.0469 84.1562 48.4375 84.1562ZM54.2344 85.1719H55.5547V80.6719C55.5547 79.2031 56.3438 78.4609 57.5859 78.4609C58.7656 78.4609 59.3828 79.2656 59.3828 80.5547V85.1719H60.7031V80.3125C60.6797 78.6406 59.8438 77.2344 57.9453 77.2344C57 77.2344 56.0938 77.6641 55.5547 78.5547V77.3672H54.2344V85.1719ZM65.8359 77.2344C64.4062 77.2344 63.4688 77.8359 62.7109 78.875L63.7266 79.6094C64.1953 78.8828 64.8594 78.3906 65.8516 78.3906C67.3281 78.3906 67.8281 79.1016 67.8359 80.625H65.625C63.7031 80.625 62.4062 81.2422 62.4062 82.8594C62.4062 84.4062 63.5625 85.3047 65.1484 85.3047C66.2188 85.3047 67.2969 84.7969 67.8516 83.7812L67.9375 85.1719H69.0391V80.4141C69.0391 78.4766 67.8828 77.2344 65.8359 77.2344ZM65.4062 84.1719C64.3438 84.1719 63.7656 83.6641 63.7656 82.9062C63.7656 82.1172 64.3906 81.5938 65.7031 81.5938H67.8359V82.1016C67.5781 83.2734 66.7266 84.1719 65.4062 84.1719ZM72.8984 85.3047C73.2734 85.3047 73.7422 85.2422 74.1016 85.1641L74.0938 84.0469C73.8672 84.0859 73.6484 84.1094 73.4922 84.1094C72.8516 84.1094 72.7188 83.7266 72.7188 83.2031V74.1328H71.3906V83.5547C71.3906 84.75 71.8594 85.3047 72.8984 85.3047ZM84.5234 85.3047C86.6875 85.3047 88.3125 84.2422 89.1797 82.2422L87.9062 81.7188C87.2422 83.3125 86.1562 83.9922 84.5234 83.9922C81.8828 83.9922 80.7734 82.0703 80.7734 79.5859C80.7734 77.0703 81.9922 75.2969 84.5469 75.2969C86.2031 75.2969 87.3672 75.9609 87.875 77.5469L89.1641 77.0312C88.3281 75.0312 86.7422 73.9844 84.5625 73.9844C81.1094 73.9844 79.4062 76.4453 79.4062 79.6406C79.4062 82.8281 81.1172 85.3047 84.5234 85.3047ZM93.5703 77.2344C92.1406 77.2344 91.2031 77.8359 90.4453 78.875L91.4609 79.6094C91.9297 78.8828 92.5938 78.3906 93.5859 78.3906C95.0625 78.3906 95.5625 79.1016 95.5703 80.625H93.3594C91.4375 80.625 90.1406 81.2422 90.1406 82.8594C90.1406 84.4062 91.2969 85.3047 92.8828 85.3047C93.9531 85.3047 95.0312 84.7969 95.5859 83.7812L95.6719 85.1719H96.7734V80.4141C96.7734 78.4766 95.6172 77.2344 93.5703 77.2344ZM93.1406 84.1719C92.0781 84.1719 91.5 83.6641 91.5 82.9062C91.5 82.1172 92.125 81.5938 93.4375 81.5938H95.5703V82.1016C95.3125 83.2734 94.4609 84.1719 93.1406 84.1719ZM99.1719 85.1719H100.453V81.4141C100.453 79.3438 101.586 78.5234 102.57 78.5234C102.883 78.5234 103.18 78.6094 103.445 78.7578L104.055 77.6641C103.703 77.3672 103.227 77.2344 102.766 77.2344C101.852 77.2344 100.836 77.7734 100.461 78.8984V77.3672H99.1719V85.1719ZM108.031 85.3047C109.305 85.3047 110.242 84.8984 111.109 83.9688L110.188 83.1641C109.539 83.8516 108.898 84.1016 108.039 84.1016C106.578 84.1016 105.789 83.1641 105.688 81.6641H111.305C111.336 81.5469 111.367 81.2344 111.367 80.9453C111.367 79.3359 110.516 77.2344 107.898 77.2344C105.508 77.2344 104.289 79.1562 104.289 81.3047C104.289 83.5 105.562 85.3047 108.031 85.3047ZM105.688 80.6953C105.836 79.3281 106.57 78.3516 107.891 78.3516C109.203 78.3516 109.891 79.2344 110.023 80.2031C110.055 80.3594 110.055 80.5234 110.055 80.6953H105.688ZM1.85156 120.266C2.875 120.266 3.71094 119.438 3.71094 118.414C3.71094 117.391 2.875 116.555 1.85156 116.555C0.828125 116.555 0 117.391 0 118.414C0 119.438 0.828125 120.266 1.85156 120.266ZM15.5 122.172H16.875V117.266H22.3516V122.172H23.7266V111.133H22.3516V115.992H16.875V111.133H15.5V122.172ZM29.7969 122.305C32.0859 122.305 33.6562 120.484 33.6562 118.25C33.6562 116.031 32.0859 114.234 29.7969 114.234C27.5078 114.234 25.9531 116.031 25.9531 118.25C25.9531 120.484 27.5078 122.305 29.7969 122.305ZM29.7969 121.156C28.1953 121.156 27.3281 119.836 27.3281 118.25C27.3281 116.672 28.1953 115.383 29.7969 115.383C31.4062 115.383 32.2812 116.68 32.2812 118.25C32.2812 119.828 31.4062 121.156 29.7969 121.156ZM35.6016 122.172H36.9297V117.656C36.9297 116.406 37.6719 115.469 38.8906 115.469C40.0703 115.469 40.5391 116.297 40.5391 117.531V122.172H41.8594V117.656C41.8594 116.406 42.6094 115.469 43.8125 115.469C45.0312 115.469 45.4688 116.328 45.4688 117.727V122.172H46.7969V117.57C46.7969 115.688 45.9766 114.234 44.0703 114.234C42.9766 114.234 42.0312 114.742 41.5156 115.844C41.1328 114.695 40.2031 114.234 39.1484 114.234C38.1797 114.234 37.3281 114.641 36.875 115.594V114.367H35.5938L35.6016 122.172ZM52.2969 122.305C53.5703 122.305 54.5078 121.898 55.375 120.969L54.4531 120.164C53.8047 120.852 53.1641 121.102 52.3047 121.102C50.8438 121.102 50.0547 120.164 49.9531 118.664H55.5703C55.6016 118.547 55.6328 118.234 55.6328 117.945C55.6328 116.336 54.7812 114.234 52.1641 114.234C49.7734 114.234 48.5547 116.156 48.5547 118.305C48.5547 120.5 49.8281 122.305 52.2969 122.305ZM49.9531 117.695C50.1016 116.328 50.8359 115.352 52.1562 115.352C53.4688 115.352 54.1562 116.234 54.2891 117.203C54.3203 117.359 54.3203 117.523 54.3203 117.695H49.9531ZM66.3047 122.305C68.4688 122.305 70.0938 121.242 70.9609 119.242L69.6875 118.719C69.0234 120.312 67.9375 120.992 66.3047 120.992C63.6641 120.992 62.5547 119.07 62.5547 116.586C62.5547 114.07 63.7734 112.297 66.3281 112.297C67.9844 112.297 69.1484 112.961 69.6562 114.547L70.9453 114.031C70.1094 112.031 68.5234 110.984 66.3438 110.984C62.8906 110.984 61.1875 113.445 61.1875 116.641C61.1875 119.828 62.8984 122.305 66.3047 122.305ZM75.3516 114.234C73.9219 114.234 72.9844 114.836 72.2266 115.875L73.2422 116.609C73.7109 115.883 74.375 115.391 75.3672 115.391C76.8438 115.391 77.3438 116.102 77.3516 117.625H75.1406C73.2188 117.625 71.9219 118.242 71.9219 119.859C71.9219 121.406 73.0781 122.305 74.6641 122.305C75.7344 122.305 76.8125 121.797 77.3672 120.781L77.4531 122.172H78.5547V117.414C78.5547 115.477 77.3984 114.234 75.3516 114.234ZM74.9219 121.172C73.8594 121.172 73.2812 120.664 73.2812 119.906C73.2812 119.117 73.9062 118.594 75.2188 118.594H77.3516V119.102C77.0938 120.273 76.2422 121.172 74.9219 121.172ZM80.9531 122.172H82.2344V118.414C82.2344 116.344 83.3672 115.523 84.3516 115.523C84.6641 115.523 84.9609 115.609 85.2266 115.758L85.8359 114.664C85.4844 114.367 85.0078 114.234 84.5469 114.234C83.6328 114.234 82.6172 114.773 82.2422 115.898V114.367H80.9531V122.172ZM89.8125 122.305C91.0859 122.305 92.0234 121.898 92.8906 120.969L91.9688 120.164C91.3203 120.852 90.6797 121.102 89.8203 121.102C88.3594 121.102 87.5703 120.164 87.4688 118.664H93.0859C93.1172 118.547 93.1484 118.234 93.1484 117.945C93.1484 116.336 92.2969 114.234 89.6797 114.234C87.2891 114.234 86.0703 116.156 86.0703 118.305C86.0703 120.5 87.3438 122.305 89.8125 122.305ZM87.4688 117.695C87.6172 116.328 88.3516 115.352 89.6719 115.352C90.9844 115.352 91.6719 116.234 91.8047 117.203C91.8359 117.359 91.8359 117.523 91.8359 117.695H87.4688ZM1.85156 157.266C2.875 157.266 3.71094 156.438 3.71094 155.414C3.71094 154.391 2.875 153.555 1.85156 153.555C0.828125 153.555 0 154.391 0 155.414C0 156.438 0.828125 157.266 1.85156 157.266ZM15.5 159.172H19.3828C21.3828 159.172 22.9297 158.07 22.9297 156.07C22.9297 154.781 22.1328 153.641 20.9766 153.312C21.7422 152.977 22.3906 152.102 22.3906 151.016C22.3906 148.953 20.7969 148.133 19.0078 148.133H15.5V159.172ZM16.875 152.844V149.383H19.0312C20.3047 149.383 21.1172 149.953 21.1172 151.094C21.1172 152.305 20.2734 152.844 19.2969 152.844H16.875ZM16.875 157.859V154.039H19.5625C20.8125 154.039 21.5703 154.82 21.5703 155.922C21.5703 157.211 20.8125 157.859 19.3984 157.859H16.875ZM27.7578 151.234C26.3281 151.234 25.3906 151.836 24.6328 152.875L25.6484 153.609C26.1172 152.883 26.7812 152.391 27.7734 152.391C29.25 152.391 29.75 153.102 29.7578 154.625H27.5469C25.625 154.625 24.3281 155.242 24.3281 156.859C24.3281 158.406 25.4844 159.305 27.0703 159.305C28.1406 159.305 29.2188 158.797 29.7734 157.781L29.8594 159.172H30.9609V154.414C30.9609 152.477 29.8047 151.234 27.7578 151.234ZM27.3281 158.172C26.2656 158.172 25.6875 157.664 25.6875 156.906C25.6875 156.117 26.3125 155.594 27.625 155.594H29.7578V156.102C29.5 157.273 28.6484 158.172 27.3281 158.172ZM37.3516 159.305C39.4688 159.305 40.6641 157.461 40.6641 155.266C40.6641 153.062 39.4688 151.234 37.3281 151.234C36.2266 151.234 35.25 151.789 34.7422 152.773V148.133H33.375V159.172H34.7422V157.758C35.25 158.75 36.2578 159.305 37.3516 159.305ZM37.0312 158.078C35.5078 158.078 34.625 156.867 34.625 155.266C34.625 153.664 35.5078 152.438 37.0312 152.438C38.5547 152.438 39.3359 153.68 39.3359 155.266C39.3359 156.852 38.5547 158.078 37.0312 158.078ZM43.0312 162.523H44.4766L48.8203 151.367H47.3672L45.1016 157.508L42.625 151.367H41.1641L44.3984 159.039L43.0312 162.523ZM59.0391 159.305C61.2031 159.305 62.8281 158.242 63.6953 156.242L62.4219 155.719C61.7578 157.312 60.6719 157.992 59.0391 157.992C56.3984 157.992 55.2891 156.07 55.2891 153.586C55.2891 151.07 56.5078 149.297 59.0625 149.297C60.7188 149.297 61.8828 149.961 62.3906 151.547L63.6797 151.031C62.8438 149.031 61.2578 147.984 59.0781 147.984C55.625 147.984 53.9219 150.445 53.9219 153.641C53.9219 156.828 55.6328 159.305 59.0391 159.305ZM68.0859 151.234C66.6562 151.234 65.7188 151.836 64.9609 152.875L65.9766 153.609C66.4453 152.883 67.1094 152.391 68.1016 152.391C69.5781 152.391 70.0781 153.102 70.0859 154.625H67.875C65.9531 154.625 64.6562 155.242 64.6562 156.859C64.6562 158.406 65.8125 159.305 67.3984 159.305C68.4688 159.305 69.5469 158.797 70.1016 157.781L70.1875 159.172H71.2891V154.414C71.2891 152.477 70.1328 151.234 68.0859 151.234ZM67.6562 158.172C66.5938 158.172 66.0156 157.664 66.0156 156.906C66.0156 156.117 66.6406 155.594 67.9531 155.594H70.0859V156.102C69.8281 157.273 68.9766 158.172 67.6562 158.172ZM73.6875 159.172H74.9688V155.414C74.9688 153.344 76.1016 152.523 77.0859 152.523C77.3984 152.523 77.6953 152.609 77.9609 152.758L78.5703 151.664C78.2188 151.367 77.7422 151.234 77.2812 151.234C76.3672 151.234 75.3516 151.773 74.9766 152.898V151.367H73.6875V159.172ZM82.5469 159.305C83.8203 159.305 84.7578 158.898 85.625 157.969L84.7031 157.164C84.0547 157.852 83.4141 158.102 82.5547 158.102C81.0938 158.102 80.3047 157.164 80.2031 155.664H85.8203C85.8516 155.547 85.8828 155.234 85.8828 154.945C85.8828 153.336 85.0312 151.234 82.4141 151.234C80.0234 151.234 78.8047 153.156 78.8047 155.305C78.8047 157.5 80.0781 159.305 82.5469 159.305ZM80.2031 154.695C80.3516 153.328 81.0859 152.352 82.4062 152.352C83.7188 152.352 84.4062 153.234 84.5391 154.203C84.5703 154.359 84.5703 154.523 84.5703 154.695H80.2031ZM1.85156 194.266C2.875 194.266 3.71094 193.438 3.71094 192.414C3.71094 191.391 2.875 190.555 1.85156 190.555C0.828125 190.555 0 191.391 0 192.414C0 193.438 0.828125 194.266 1.85156 194.266ZM22.5703 185.133L19.1719 194L15.7578 185.133H14.2344L18.625 196.172H19.7031L24.0781 185.133H22.5703ZM27.875 196.305C29.1484 196.305 30.0859 195.898 30.9531 194.969L30.0312 194.164C29.3828 194.852 28.7422 195.102 27.8828 195.102C26.4219 195.102 25.6328 194.164 25.5312 192.664H31.1484C31.1797 192.547 31.2109 192.234 31.2109 191.945C31.2109 190.336 30.3594 188.234 27.7422 188.234C25.3516 188.234 24.1328 190.156 24.1328 192.305C24.1328 194.5 25.4062 196.305 27.875 196.305ZM25.5312 191.695C25.6797 190.328 26.4141 189.352 27.7344 189.352C29.0469 189.352 29.7344 190.234 29.8672 191.203C29.8984 191.359 29.8984 191.523 29.8984 191.695H25.5312ZM36.2812 195.141C34.8906 194.945 33.8516 194.859 33.8516 194.07C33.8516 193.766 34.0078 193.547 34.3359 193.391C34.7969 193.625 35.3359 193.758 35.9297 193.758C37.6016 193.758 38.9375 192.695 38.9375 191.047C38.9375 190.508 38.7969 190.016 38.5469 189.609L39.6172 188.719L38.9297 187.859L37.8203 188.82C37.2969 188.445 36.625 188.234 35.8906 188.234C34.2031 188.234 32.8516 189.359 32.8516 190.977C32.8516 191.672 33.0938 192.281 33.5156 192.758C32.9922 193.141 32.7109 193.625 32.7109 194.297C32.7109 195.07 33.1016 195.523 33.6406 195.805L32.5625 196.766C32.5469 196.867 32.5391 196.961 32.5391 197.109C32.5391 198.672 33.8281 199.797 36.125 199.797C38.0391 199.797 39.4453 198.953 39.4453 197.344C39.4453 195.633 37.8203 195.367 36.2812 195.141ZM35.9375 189.266C36.9844 189.266 37.625 189.977 37.625 190.992C37.625 191.977 36.9922 192.672 35.9297 192.672C34.8594 192.672 34.2188 191.977 34.2188 190.984C34.2188 189.984 34.8828 189.266 35.9375 189.266ZM36.1172 198.758C34.8594 198.758 33.9062 198.266 33.75 197.281L33.7266 197.047L34.4609 196.086C34.9141 196.188 35.3906 196.242 35.8203 196.297C37.25 196.477 38.1875 196.625 38.1875 197.484C38.1875 198.297 37.375 198.758 36.1172 198.758ZM44.4062 196.305C45.6797 196.305 46.6172 195.898 47.4844 194.969L46.5625 194.164C45.9141 194.852 45.2734 195.102 44.4141 195.102C42.9531 195.102 42.1641 194.164 42.0625 192.664H47.6797C47.7109 192.547 47.7422 192.234 47.7422 191.945C47.7422 190.336 46.8906 188.234 44.2734 188.234C41.8828 188.234 40.6641 190.156 40.6641 192.305C40.6641 194.5 41.9375 196.305 44.4062 196.305ZM42.0625 191.695C42.2109 190.328 42.9453 189.352 44.2656 189.352C45.5781 189.352 46.2656 190.234 46.3984 191.203C46.4297 191.359 46.4297 191.523 46.4297 191.695H42.0625ZM52.1875 196.305C52.6719 196.305 53.1406 196.211 53.3906 196.117L53.3828 194.914C53.1562 195.016 52.7734 195.133 52.4141 195.133C51.6953 195.133 51.2812 194.758 51.2812 193.773V189.484H53.3906V188.367H51.2812V185.258L49.9766 186.211V188.367H48.6719V189.484H49.9609V193.992C49.9609 195.461 50.7578 196.305 52.1875 196.305ZM58.0859 188.234C56.6562 188.234 55.7188 188.836 54.9609 189.875L55.9766 190.609C56.4453 189.883 57.1094 189.391 58.1016 189.391C59.5781 189.391 60.0781 190.102 60.0859 191.625H57.875C55.9531 191.625 54.6562 192.242 54.6562 193.859C54.6562 195.406 55.8125 196.305 57.3984 196.305C58.4688 196.305 59.5469 195.797 60.1016 194.781L60.1875 196.172H61.2891V191.414C61.2891 189.477 60.1328 188.234 58.0859 188.234ZM57.6562 195.172C56.5938 195.172 56.0156 194.664 56.0156 193.906C56.0156 193.117 56.6406 192.594 57.9531 192.594H60.0859V193.102C59.8281 194.273 58.9766 195.172 57.6562 195.172ZM67.6797 196.305C69.7969 196.305 70.9922 194.461 70.9922 192.266C70.9922 190.062 69.7969 188.234 67.6562 188.234C66.5547 188.234 65.5781 188.789 65.0703 189.773V185.133H63.7031V196.172H65.0703V194.758C65.5781 195.75 66.5859 196.305 67.6797 196.305ZM67.3594 195.078C65.8359 195.078 64.9531 193.867 64.9531 192.266C64.9531 190.664 65.8359 189.438 67.3594 189.438C68.8828 189.438 69.6641 190.68 69.6641 192.266C69.6641 193.852 68.8828 195.078 67.3594 195.078ZM74.4609 196.305C74.8359 196.305 75.3047 196.242 75.6641 196.164L75.6562 195.047C75.4297 195.086 75.2109 195.109 75.0547 195.109C74.4141 195.109 74.2812 194.727 74.2812 194.203V185.133H72.9531V194.555C72.9531 195.75 73.4219 196.305 74.4609 196.305ZM80.4531 196.305C81.7266 196.305 82.6641 195.898 83.5312 194.969L82.6094 194.164C81.9609 194.852 81.3203 195.102 80.4609 195.102C79 195.102 78.2109 194.164 78.1094 192.664H83.7266C83.7578 192.547 83.7891 192.234 83.7891 191.945C83.7891 190.336 82.9375 188.234 80.3203 188.234C77.9297 188.234 76.7109 190.156 76.7109 192.305C76.7109 194.5 77.9844 196.305 80.4531 196.305ZM78.1094 191.695C78.2578 190.328 78.9922 189.352 80.3125 189.352C81.625 189.352 82.3125 190.234 82.4453 191.203C82.4766 191.359 82.4766 191.523 82.4766 191.695H78.1094ZM88.0625 196.305C89.5703 196.305 90.9297 195.508 90.9297 193.867C90.9297 190.922 86.5625 191.984 86.5625 190.297C86.5625 189.711 87.1172 189.289 88 189.289C88.9141 189.289 89.4922 189.812 89.8359 190.438L90.8594 189.883C90.2969 188.844 89.3125 188.234 88.0469 188.234C86.5469 188.234 85.2969 189 85.2969 190.469C85.2969 193.273 89.625 192.078 89.625 193.93C89.625 194.617 89.0781 195.195 88 195.195C86.8516 195.195 86.1953 194.477 85.9297 193.734L84.8594 194.203C85.25 195.391 86.4844 196.305 88.0625 196.305ZM105.164 195.875L103.562 194.039C104.133 193.172 104.484 192.102 104.562 190.906L103.273 190.781C103.242 191.617 103.039 192.398 102.703 193.062L100.5 190.539C101.742 189.82 102.859 188.984 102.859 187.547C102.859 186.117 101.625 185.023 100.094 185.023C98.5703 185.023 97.1719 186.008 97.1719 187.555C97.1719 188.742 98.1406 189.773 98.6016 190.281C97.2344 191.023 95.9219 191.922 95.9219 193.633C95.9219 195.344 97.3906 196.312 99.375 196.312C100.711 196.312 101.867 195.828 102.75 195L104.227 196.711L105.164 195.875ZM98.4531 187.578C98.4531 186.648 99.1797 186.062 100.102 186.062C101.039 186.062 101.633 186.742 101.633 187.57C101.633 188.539 100.734 189.133 99.6484 189.719C99.2812 189.281 98.4531 188.352 98.4531 187.578ZM99.3438 195.188C98.0469 195.188 97.2031 194.633 97.2031 193.656C97.2031 192.5 98.2422 191.805 99.4297 191.141L101.977 194.094C101.312 194.773 100.422 195.188 99.3438 195.188ZM110.984 196.172H112.359V191.273H117.82V190H112.359V186.398H118.562V185.133H110.984V196.172ZM119.938 196.172H121.219V192.414C121.219 190.344 122.352 189.523 123.336 189.523C123.648 189.523 123.945 189.609 124.211 189.758L124.82 188.664C124.469 188.367 123.992 188.234 123.531 188.234C122.617 188.234 121.602 188.773 121.227 189.898V188.367H119.938V196.172ZM128.773 196.305C129.719 196.305 130.641 195.875 131.172 194.984V196.172H132.484V188.367H131.172V192.867C131.172 194.328 130.375 195.078 129.133 195.078C127.953 195.078 127.336 194.273 127.336 192.984V188.367H126.023V193.219C126.047 194.891 126.875 196.305 128.773 196.305ZM135.078 186.789H136.461V185.133H135.078V186.789ZM135.109 196.172H136.43V188.367H135.109V196.172ZM141.547 196.305C142.031 196.305 142.5 196.211 142.75 196.117L142.742 194.914C142.516 195.016 142.133 195.133 141.773 195.133C141.055 195.133 140.641 194.758 140.641 193.773V189.484H142.75V188.367H140.641V185.258L139.336 186.211V188.367H138.031V189.484H139.32V193.992C139.32 195.461 140.117 196.305 141.547 196.305ZM147.188 196.305C148.695 196.305 150.055 195.508 150.055 193.867C150.055 190.922 145.688 191.984 145.688 190.297C145.688 189.711 146.242 189.289 147.125 189.289C148.039 189.289 148.617 189.812 148.961 190.438L149.984 189.883C149.422 188.844 148.438 188.234 147.172 188.234C145.672 188.234 144.422 189 144.422 190.469C144.422 193.273 148.75 192.078 148.75 193.93C148.75 194.617 148.203 195.195 147.125 195.195C145.977 195.195 145.32 194.477 145.055 193.734L143.984 194.203C144.375 195.391 145.609 196.305 147.188 196.305ZM1.85156 231.266C2.875 231.266 3.71094 230.438 3.71094 229.414C3.71094 228.391 2.875 227.555 1.85156 227.555C0.828125 227.555 0 228.391 0 229.414C0 230.438 0.828125 231.266 1.85156 231.266ZM18.4453 233.281C20.4844 233.281 22.0938 232.031 22.0938 230.078C22.0938 226.43 16.5312 227.266 16.5312 224.828C16.5312 223.891 17.3125 223.227 18.3359 223.227C19.2656 223.227 19.9766 223.664 20.4453 224.531L21.5859 223.828C20.8672 222.555 19.7344 222 18.3828 222C16.6094 222 15.1562 223.094 15.1562 224.891C15.1562 228.391 20.7188 227.5 20.7188 230.195C20.7188 231.25 19.8594 232.055 18.4688 232.055C17.0938 232.055 16.0312 231.312 15.8359 229.836L14.4766 230.18C14.8125 232.211 16.5234 233.281 18.4453 233.281ZM23.7969 233.172H25.1172V228.672C25.1172 227.203 25.9062 226.461 27.1484 226.461C28.3281 226.461 28.9453 227.266 28.9453 228.555V233.172H30.2656V228.312C30.2422 226.641 29.4062 225.234 27.5078 225.234C26.5625 225.234 25.6562 225.664 25.1172 226.555V225.367H23.7969V233.172ZM35.3984 225.234C33.9688 225.234 33.0312 225.836 32.2734 226.875L33.2891 227.609C33.7578 226.883 34.4219 226.391 35.4141 226.391C36.8906 226.391 37.3906 227.102 37.3984 228.625H35.1875C33.2656 228.625 31.9688 229.242 31.9688 230.859C31.9688 232.406 33.125 233.305 34.7109 233.305C35.7812 233.305 36.8594 232.797 37.4141 231.781L37.5 233.172H38.6016V228.414C38.6016 226.477 37.4453 225.234 35.3984 225.234ZM34.9688 232.172C33.9062 232.172 33.3281 231.664 33.3281 230.906C33.3281 230.117 33.9531 229.594 35.2656 229.594H37.3984V230.102C37.1406 231.273 36.2891 232.172 34.9688 232.172ZM43.9297 233.305C45.4062 233.305 46.5625 232.492 47.0547 231.094L45.8516 230.641C45.5703 231.531 44.8516 232.102 43.9141 232.102C42.3516 232.102 41.6719 230.75 41.6719 229.281C41.6719 227.836 42.3516 226.438 43.9141 226.438C44.8438 226.438 45.5625 227.016 45.875 227.922L47.1328 227.43C46.5547 225.977 45.375 225.234 43.9141 225.234C41.5 225.234 40.3281 227.234 40.3281 229.281C40.3281 231.445 41.5859 233.305 43.9297 233.305ZM48.9062 233.172H50.2266V230.867L51.8516 229.141L54.4609 233.172H56.0234L52.75 228.32L55.6172 225.367H53.8906L50.2266 229.281V222.133H48.9062V233.172ZM59.8125 233.305C61.3203 233.305 62.6797 232.508 62.6797 230.867C62.6797 227.922 58.3125 228.984 58.3125 227.297C58.3125 226.711 58.8672 226.289 59.75 226.289C60.6641 226.289 61.2422 226.812 61.5859 227.438L62.6094 226.883C62.0469 225.844 61.0625 225.234 59.7969 225.234C58.2969 225.234 57.0469 226 57.0469 227.469C57.0469 230.273 61.375 229.078 61.375 230.93C61.375 231.617 60.8281 232.195 59.75 232.195C58.6016 232.195 57.9453 231.477 57.6797 230.734L56.6094 231.203C57 232.391 58.2344 233.305 59.8125 233.305ZM76.9141 232.875L75.3125 231.039C75.8828 230.172 76.2344 229.102 76.3125 227.906L75.0234 227.781C74.9922 228.617 74.7891 229.398 74.4531 230.062L72.25 227.539C73.4922 226.82 74.6094 225.984 74.6094 224.547C74.6094 223.117 73.375 222.023 71.8438 222.023C70.3203 222.023 68.9219 223.008 68.9219 224.555C68.9219 225.742 69.8906 226.773 70.3516 227.281C68.9844 228.023 67.6719 228.922 67.6719 230.633C67.6719 232.344 69.1406 233.312 71.125 233.312C72.4609 233.312 73.6172 232.828 74.5 232L75.9766 233.711L76.9141 232.875ZM70.2031 224.578C70.2031 223.648 70.9297 223.062 71.8516 223.062C72.7891 223.062 73.3828 223.742 73.3828 224.57C73.3828 225.539 72.4844 226.133 71.3984 226.719C71.0312 226.281 70.2031 225.352 70.2031 224.578ZM71.0938 232.188C69.7969 232.188 68.9531 231.633 68.9531 230.656C68.9531 229.5 69.9922 228.805 71.1797 228.141L73.7266 231.094C73.0625 231.773 72.1719 232.188 71.0938 232.188ZM82.7344 233.172H84.1094V228.273H89.5703V227H84.1094V223.398H90.3125V222.133H82.7344V233.172ZM94.7969 233.305C97.0859 233.305 98.6562 231.484 98.6562 229.25C98.6562 227.031 97.0859 225.234 94.7969 225.234C92.5078 225.234 90.9531 227.031 90.9531 229.25C90.9531 231.484 92.5078 233.305 94.7969 233.305ZM94.7969 232.156C93.1953 232.156 92.3281 230.836 92.3281 229.25C92.3281 227.672 93.1953 226.383 94.7969 226.383C96.4062 226.383 97.2812 227.68 97.2812 229.25C97.2812 230.828 96.4062 232.156 94.7969 232.156ZM103.734 233.305C106.023 233.305 107.594 231.484 107.594 229.25C107.594 227.031 106.023 225.234 103.734 225.234C101.445 225.234 99.8906 227.031 99.8906 229.25C99.8906 231.484 101.445 233.305 103.734 233.305ZM103.734 232.156C102.133 232.156 101.266 230.836 101.266 229.25C101.266 227.672 102.133 226.383 103.734 226.383C105.344 226.383 106.219 227.68 106.219 229.25C106.219 230.828 105.344 232.156 103.734 232.156ZM112.336 233.305C113.461 233.305 114.469 232.727 114.977 231.695L115.031 233.172H116.266V222.133H114.922V226.773C114.414 225.789 113.406 225.234 112.312 225.234C110.195 225.234 108.891 227.07 108.891 229.266C108.891 231.469 110.195 233.305 112.336 233.305ZM112.648 232.102C111.117 232.102 110.234 230.859 110.234 229.266C110.234 227.68 111.117 226.438 112.648 226.438C114.164 226.438 115.031 227.664 115.031 229.266C115.031 230.875 114.164 232.102 112.648 232.102ZM121.234 233.305C122.742 233.305 124.102 232.508 124.102 230.867C124.102 227.922 119.734 228.984 119.734 227.297C119.734 226.711 120.289 226.289 121.172 226.289C122.086 226.289 122.664 226.812 123.008 227.438L124.031 226.883C123.469 225.844 122.484 225.234 121.219 225.234C119.719 225.234 118.469 226 118.469 227.469C118.469 230.273 122.797 229.078 122.797 230.93C122.797 231.617 122.25 232.195 121.172 232.195C120.023 232.195 119.367 231.477 119.102 230.734L118.031 231.203C118.422 232.391 119.656 233.305 121.234 233.305ZM1.85156 268.266C2.875 268.266 3.71094 267.438 3.71094 266.414C3.71094 265.391 2.875 264.555 1.85156 264.555C0.828125 264.555 0 265.391 0 266.414C0 267.438 0.828125 268.266 1.85156 268.266ZM15.5 270.172H18.5391C22.1875 270.172 24.2188 268.18 24.2188 264.734C24.2188 261.141 22.2422 259.133 18.5547 259.133H15.5V270.172ZM16.875 268.906V260.398H18.5312C21.5 260.398 22.8438 261.758 22.8438 264.68C22.8438 267.641 21.1797 268.906 18.4062 268.906H16.875ZM29.1328 262.234C27.7031 262.234 26.7656 262.836 26.0078 263.875L27.0234 264.609C27.4922 263.883 28.1562 263.391 29.1484 263.391C30.625 263.391 31.125 264.102 31.1328 265.625H28.9219C27 265.625 25.7031 266.242 25.7031 267.859C25.7031 269.406 26.8594 270.305 28.4453 270.305C29.5156 270.305 30.5938 269.797 31.1484 268.781L31.2344 270.172H32.3359V265.414C32.3359 263.477 31.1797 262.234 29.1328 262.234ZM28.7031 269.172C27.6406 269.172 27.0625 268.664 27.0625 267.906C27.0625 267.117 27.6875 266.594 29 266.594H31.1328V267.102C30.875 268.273 30.0234 269.172 28.7031 269.172ZM34.7031 260.789H36.0859V259.133H34.7031V260.789ZM34.7344 270.172H36.0547V262.367H34.7344V270.172ZM38.6719 270.172H39.9531V266.414C39.9531 264.344 41.0859 263.523 42.0703 263.523C42.3828 263.523 42.6797 263.609 42.9453 263.758L43.5547 262.664C43.2031 262.367 42.7266 262.234 42.2656 262.234C41.3516 262.234 40.3359 262.773 39.9609 263.898V262.367H38.6719V270.172ZM45.9844 273.523H47.4297L51.7734 262.367H50.3203L48.0547 268.508L45.5781 262.367H44.1172L47.3516 270.039L45.9844 273.523ZM65.4922 269.875L63.8906 268.039C64.4609 267.172 64.8125 266.102 64.8906 264.906L63.6016 264.781C63.5703 265.617 63.3672 266.398 63.0312 267.062L60.8281 264.539C62.0703 263.82 63.1875 262.984 63.1875 261.547C63.1875 260.117 61.9531 259.023 60.4219 259.023C58.8984 259.023 57.5 260.008 57.5 261.555C57.5 262.742 58.4688 263.773 58.9297 264.281C57.5625 265.023 56.25 265.922 56.25 267.633C56.25 269.344 57.7188 270.312 59.7031 270.312C61.0391 270.312 62.1953 269.828 63.0781 269L64.5547 270.711L65.4922 269.875ZM58.7812 261.578C58.7812 260.648 59.5078 260.062 60.4297 260.062C61.3672 260.062 61.9609 260.742 61.9609 261.57C61.9609 262.539 61.0625 263.133 59.9766 263.719C59.6094 263.281 58.7812 262.352 58.7812 261.578ZM59.6719 269.188C58.375 269.188 57.5312 268.633 57.5312 267.656C57.5312 266.5 58.5703 265.805 59.7578 265.141L62.3047 268.094C61.6406 268.773 60.75 269.188 59.6719 269.188ZM71.3125 270.172H75.1953C77.1953 270.172 78.7422 269.07 78.7422 267.07C78.7422 265.781 77.9453 264.641 76.7891 264.312C77.5547 263.977 78.2031 263.102 78.2031 262.016C78.2031 259.953 76.6094 259.133 74.8203 259.133H71.3125V270.172ZM72.6875 263.844V260.383H74.8438C76.1172 260.383 76.9297 260.953 76.9297 262.094C76.9297 263.305 76.0859 263.844 75.1094 263.844H72.6875ZM72.6875 268.859V265.039H75.375C76.625 265.039 77.3828 265.82 77.3828 266.922C77.3828 268.211 76.625 268.859 75.2109 268.859H72.6875ZM83.5703 262.234C82.1406 262.234 81.2031 262.836 80.4453 263.875L81.4609 264.609C81.9297 263.883 82.5938 263.391 83.5859 263.391C85.0625 263.391 85.5625 264.102 85.5703 265.625H83.3594C81.4375 265.625 80.1406 266.242 80.1406 267.859C80.1406 269.406 81.2969 270.305 82.8828 270.305C83.9531 270.305 85.0312 269.797 85.5859 268.781L85.6719 270.172H86.7734V265.414C86.7734 263.477 85.6172 262.234 83.5703 262.234ZM83.1406 269.172C82.0781 269.172 81.5 268.664 81.5 267.906C81.5 267.117 82.125 266.594 83.4375 266.594H85.5703V267.102C85.3125 268.273 84.4609 269.172 83.1406 269.172ZM89.1875 270.172H90.5078V267.867L92.1328 266.141L94.7422 270.172H96.3047L93.0312 265.32L95.8984 262.367H94.1719L90.5078 266.281V259.133H89.1875V270.172ZM100.484 270.305C101.758 270.305 102.695 269.898 103.562 268.969L102.641 268.164C101.992 268.852 101.352 269.102 100.492 269.102C99.0312 269.102 98.2422 268.164 98.1406 266.664H103.758C103.789 266.547 103.82 266.234 103.82 265.945C103.82 264.336 102.969 262.234 100.352 262.234C97.9609 262.234 96.7422 264.156 96.7422 266.305C96.7422 268.5 98.0156 270.305 100.484 270.305ZM98.1406 265.695C98.2891 264.328 99.0234 263.352 100.344 263.352C101.656 263.352 102.344 264.234 102.477 265.203C102.508 265.359 102.508 265.523 102.508 265.695H98.1406ZM105.766 270.172H107.047V266.414C107.047 264.344 108.18 263.523 109.164 263.523C109.477 263.523 109.773 263.609 110.039 263.758L110.648 262.664C110.297 262.367 109.82 262.234 109.359 262.234C108.445 262.234 107.43 262.773 107.055 263.898V262.367H105.766V270.172ZM113.078 273.523H114.523L118.867 262.367H117.414L115.148 268.508L112.672 262.367H111.211L114.445 270.039L113.078 273.523Z" fill="white"/>
</svg>
