<svg width="214" height="200" viewBox="0 0 214 200" fill="none" xmlns="http://www.w3.org/2000/svg">
<path d="M1.85156 9.13281C2.875 9.13281 3.71094 8.30469 3.71094 7.28125C3.71094 6.25781 2.875 5.42188 1.85156 5.42188C0.828125 5.42188 0 6.25781 0 7.28125C0 8.30469 0.828125 9.13281 1.85156 9.13281ZM14.25 11.0391H15.75L16.6875 8.46094H21.3359L22.2578 11.0391H23.75L19.5469 0H18.4531L14.25 11.0391ZM17.1172 7.28125L19.0078 1.96875L20.9062 7.28125H17.1172ZM29.4453 11.1719C31.5625 11.1719 32.7578 9.32812 32.7578 7.13281C32.7578 4.92969 31.5625 3.10156 29.4219 3.10156C28.3203 3.10156 27.3438 3.65625 26.8359 4.64062V0H25.4688V11.0391H26.8359V9.625C27.3438 10.6172 28.3516 11.1719 29.4453 11.1719ZM29.125 9.94531C27.6016 9.94531 26.7188 8.73438 26.7188 7.13281C26.7188 5.53125 27.6016 4.30469 29.125 4.30469C30.6484 4.30469 31.4297 5.54688 31.4297 7.13281C31.4297 8.71875 30.6484 9.94531 29.125 9.94531ZM37.9062 11.1719C40.1953 11.1719 41.7656 9.35156 41.7656 7.11719C41.7656 4.89844 40.1953 3.10156 37.9062 3.10156C35.6172 3.10156 34.0625 4.89844 34.0625 7.11719C34.0625 9.35156 35.6172 11.1719 37.9062 11.1719ZM37.9062 10.0234C36.3047 10.0234 35.4375 8.70312 35.4375 7.11719C35.4375 5.53906 36.3047 4.25 37.9062 4.25C39.5156 4.25 40.3906 5.54688 40.3906 7.11719C40.3906 8.69531 39.5156 10.0234 37.9062 10.0234ZM46.1953 11.1719C47.1406 11.1719 48.0625 10.7422 48.5938 9.85156V11.0391H49.9062V3.23438H48.5938V7.73438C48.5938 9.19531 47.7969 9.94531 46.5547 9.94531C45.375 9.94531 44.7578 9.14062 44.7578 7.85156V3.23438H43.4453V8.08594C43.4688 9.75781 44.2969 11.1719 46.1953 11.1719ZM55.0312 11.1719C55.5156 11.1719 55.9844 11.0781 56.2344 10.9844L56.2266 9.78125C56 9.88281 55.6172 10 55.2578 10C54.5391 10 54.125 9.625 54.125 8.64062V4.35156H56.2344V3.23438H54.125V0.125L52.8203 1.07812V3.23438H51.5156V4.35156H52.8047V8.85938C52.8047 10.3281 53.6016 11.1719 55.0312 11.1719ZM66.2969 11.1719C69.0625 11.1719 70.3438 9.5 70.3438 6.76562V0H68.9688V6.66406C68.9688 8.70312 68.2422 9.83594 66.2969 9.83594C64.3672 9.83594 63.6406 8.71094 63.6406 6.69531V0H62.2656V6.84375C62.2656 9.51562 63.5391 11.1719 66.2969 11.1719ZM75.3594 11.1719C76.8672 11.1719 78.2266 10.375 78.2266 8.73438C78.2266 5.78906 73.8594 6.85156 73.8594 5.16406C73.8594 4.57812 74.4141 4.15625 75.2969 4.15625C76.2109 4.15625 76.7891 4.67969 77.1328 5.30469L78.1562 4.75C77.5938 3.71094 76.6094 3.10156 75.3438 3.10156C73.8438 3.10156 72.5938 3.86719 72.5938 5.33594C72.5938 8.14062 76.9219 6.94531 76.9219 8.79688C76.9219 9.48438 76.375 10.0625 75.2969 10.0625C74.1484 10.0625 73.4922 9.34375 73.2266 8.60156L72.1562 9.07031C72.5469 10.2578 73.7812 11.1719 75.3594 11.1719ZM1.85156 46.1328C2.875 46.1328 3.71094 45.3047 3.71094 44.2812C3.71094 43.2578 2.875 42.4219 1.85156 42.4219C0.828125 42.4219 0 43.2578 0 44.2812C0 45.3047 0.828125 46.1328 1.85156 46.1328ZM17.9688 48.0391H19.3438V38.2344H23.0625V37H14.25V38.2344H17.9688V48.0391ZM26.3281 48.1719C27.6016 48.1719 28.5391 47.7656 29.4062 46.8359L28.4844 46.0312C27.8359 46.7188 27.1953 46.9688 26.3359 46.9688C24.875 46.9688 24.0859 46.0312 23.9844 44.5312H29.6016C29.6328 44.4141 29.6641 44.1016 29.6641 43.8125C29.6641 42.2031 28.8125 40.1016 26.1953 40.1016C23.8047 40.1016 22.5859 42.0234 22.5859 44.1719C22.5859 46.3672 23.8594 48.1719 26.3281 48.1719ZM23.9844 43.5625C24.1328 42.1953 24.8672 41.2188 26.1875 41.2188C27.5 41.2188 28.1875 42.1016 28.3203 43.0703C28.3516 43.2266 28.3516 43.3906 28.3516 43.5625H23.9844ZM31.6094 48.0391H32.8906V44.2812C32.8906 42.2109 34.0234 41.3906 35.0078 41.3906C35.3203 41.3906 35.6172 41.4766 35.8828 41.625L36.4922 40.5312C36.1406 40.2344 35.6641 40.1016 35.2031 40.1016C34.2891 40.1016 33.2734 40.6406 32.8984 41.7656V40.2344H31.6094V48.0391ZM37.8984 48.0391H39.2266V43.5234C39.2266 42.2734 39.9688 41.3359 41.1875 41.3359C42.3672 41.3359 42.8359 42.1641 42.8359 43.3984V48.0391H44.1562V43.5234C44.1562 42.2734 44.9062 41.3359 46.1094 41.3359C47.3281 41.3359 47.7656 42.1953 47.7656 43.5938V48.0391H49.0938V43.4375C49.0938 41.5547 48.2734 40.1016 46.3672 40.1016C45.2734 40.1016 44.3281 40.6094 43.8125 41.7109C43.4297 40.5625 42.5 40.1016 41.4453 40.1016C40.4766 40.1016 39.625 40.5078 39.1719 41.4609V40.2344H37.8906L37.8984 48.0391ZM53.8281 48.1719C55.3359 48.1719 56.6953 47.375 56.6953 45.7344C56.6953 42.7891 52.3281 43.8516 52.3281 42.1641C52.3281 41.5781 52.8828 41.1562 53.7656 41.1562C54.6797 41.1562 55.2578 41.6797 55.6016 42.3047L56.625 41.75C56.0625 40.7109 55.0781 40.1016 53.8125 40.1016C52.3125 40.1016 51.0625 40.8672 51.0625 42.3359C51.0625 45.1406 55.3906 43.9453 55.3906 45.7969C55.3906 46.4844 54.8438 47.0625 53.7656 47.0625C52.6172 47.0625 51.9609 46.3438 51.6953 45.6016L50.625 46.0703C51.0156 47.2578 52.25 48.1719 53.8281 48.1719ZM70.9297 47.7422L69.3281 45.9062C69.8984 45.0391 70.25 43.9688 70.3281 42.7734L69.0391 42.6484C69.0078 43.4844 68.8047 44.2656 68.4688 44.9297L66.2656 42.4062C67.5078 41.6875 68.625 40.8516 68.625 39.4141C68.625 37.9844 67.3906 36.8906 65.8594 36.8906C64.3359 36.8906 62.9375 37.875 62.9375 39.4219C62.9375 40.6094 63.9062 41.6406 64.3672 42.1484C63 42.8906 61.6875 43.7891 61.6875 45.5C61.6875 47.2109 63.1562 48.1797 65.1406 48.1797C66.4766 48.1797 67.6328 47.6953 68.5156 46.8672L69.9922 48.5781L70.9297 47.7422ZM64.2188 39.4453C64.2188 38.5156 64.9453 37.9297 65.8672 37.9297C66.8047 37.9297 67.3984 38.6094 67.3984 39.4375C67.3984 40.4062 66.5 41 65.4141 41.5859C65.0469 41.1484 64.2188 40.2188 64.2188 39.4453ZM65.1094 47.0547C63.8125 47.0547 62.9688 46.5 62.9688 45.5234C62.9688 44.3672 64.0078 43.6719 65.1953 43.0078L67.7422 45.9609C67.0781 46.6406 66.1875 47.0547 65.1094 47.0547ZM81.1328 48.1719C83.2969 48.1719 84.9219 47.1094 85.7891 45.1094L84.5156 44.5859C83.8516 46.1797 82.7656 46.8594 81.1328 46.8594C78.4922 46.8594 77.3828 44.9375 77.3828 42.4531C77.3828 39.9375 78.6016 38.1641 81.1562 38.1641C82.8125 38.1641 83.9766 38.8281 84.4844 40.4141L85.7734 39.8984C84.9375 37.8984 83.3516 36.8516 81.1719 36.8516C77.7188 36.8516 76.0156 39.3125 76.0156 42.5078C76.0156 45.6953 77.7266 48.1719 81.1328 48.1719ZM90.5781 48.1719C92.8672 48.1719 94.4375 46.3516 94.4375 44.1172C94.4375 41.8984 92.8672 40.1016 90.5781 40.1016C88.2891 40.1016 86.7344 41.8984 86.7344 44.1172C86.7344 46.3516 88.2891 48.1719 90.5781 48.1719ZM90.5781 47.0234C88.9766 47.0234 88.1094 45.7031 88.1094 44.1172C88.1094 42.5391 88.9766 41.25 90.5781 41.25C92.1875 41.25 93.0625 42.5469 93.0625 44.1172C93.0625 45.6953 92.1875 47.0234 90.5781 47.0234ZM96.375 48.0391H97.6953V43.5391C97.6953 42.0703 98.4844 41.3281 99.7266 41.3281C100.906 41.3281 101.523 42.1328 101.523 43.4219V48.0391H102.844V43.1797C102.82 41.5078 101.984 40.1016 100.086 40.1016C99.1406 40.1016 98.2344 40.5312 97.6953 41.4219V40.2344H96.375V48.0391ZM108.07 48.1719C109.195 48.1719 110.203 47.5938 110.711 46.5625L110.766 48.0391H112V37H110.656V41.6406C110.148 40.6562 109.141 40.1016 108.047 40.1016C105.93 40.1016 104.625 41.9375 104.625 44.1328C104.625 46.3359 105.93 48.1719 108.07 48.1719ZM108.383 46.9688C106.852 46.9688 105.969 45.7266 105.969 44.1328C105.969 42.5469 106.852 41.3047 108.383 41.3047C109.898 41.3047 110.766 42.5312 110.766 44.1328C110.766 45.7422 109.898 46.9688 108.383 46.9688ZM114.609 38.6562H115.992V37H114.609V38.6562ZM114.641 48.0391H115.961V40.2344H114.641V48.0391ZM121.078 48.1719C121.562 48.1719 122.031 48.0781 122.281 47.9844L122.273 46.7812C122.047 46.8828 121.664 47 121.305 47C120.586 47 120.172 46.625 120.172 45.6406V41.3516H122.281V40.2344H120.172V37.125L118.867 38.0781V40.2344H117.562V41.3516H118.852V45.8594C118.852 47.3281 119.648 48.1719 121.078 48.1719ZM124.203 38.6562H125.586V37H124.203V38.6562ZM124.234 48.0391H125.555V40.2344H124.234V48.0391ZM131.312 48.1719C133.602 48.1719 135.172 46.3516 135.172 44.1172C135.172 41.8984 133.602 40.1016 131.312 40.1016C129.023 40.1016 127.469 41.8984 127.469 44.1172C127.469 46.3516 129.023 48.1719 131.312 48.1719ZM131.312 47.0234C129.711 47.0234 128.844 45.7031 128.844 44.1172C128.844 42.5391 129.711 41.25 131.312 41.25C132.922 41.25 133.797 42.5469 133.797 44.1172C133.797 45.6953 132.922 47.0234 131.312 47.0234ZM137.109 48.0391H138.43V43.5391C138.43 42.0703 139.219 41.3281 140.461 41.3281C141.641 41.3281 142.258 42.1328 142.258 43.4219V48.0391H143.578V43.1797C143.555 41.5078 142.719 40.1016 140.82 40.1016C139.875 40.1016 138.969 40.5312 138.43 41.4219V40.2344H137.109V48.0391ZM148.328 48.1719C149.836 48.1719 151.195 47.375 151.195 45.7344C151.195 42.7891 146.828 43.8516 146.828 42.1641C146.828 41.5781 147.383 41.1562 148.266 41.1562C149.18 41.1562 149.758 41.6797 150.102 42.3047L151.125 41.75C150.562 40.7109 149.578 40.1016 148.312 40.1016C146.812 40.1016 145.562 40.8672 145.562 42.3359C145.562 45.1406 149.891 43.9453 149.891 45.7969C149.891 46.4844 149.344 47.0625 148.266 47.0625C147.117 47.0625 146.461 46.3438 146.195 45.6016L145.125 46.0703C145.516 47.2578 146.75 48.1719 148.328 48.1719ZM1.85156 83.1328C2.875 83.1328 3.71094 82.3047 3.71094 81.2812C3.71094 80.2578 2.875 79.4219 1.85156 79.4219C0.828125 79.4219 0 80.2578 0 81.2812C0 82.3047 0.828125 83.1328 1.85156 83.1328ZM15.5 85.0391H16.875V80.1406H22.3359V78.8672H16.875V75.2656H23.0781V74H15.5V85.0391ZM23.2188 85.0391H24.7188L25.6562 82.4609H30.3047L31.2266 85.0391H32.7188L28.5156 74H27.4219L23.2188 85.0391ZM26.0859 81.2812L27.9766 75.9688L29.875 81.2812H26.0859ZM43.2734 85.8047L44.1641 84.9609L42.5859 83.4375C43.3906 82.4375 43.8047 81.0312 43.8047 79.5312C43.8047 76.5234 42.1641 73.8672 38.6484 73.8672C35.1406 73.8672 33.5 76.5078 33.5 79.5156C33.5 82.5234 35.1406 85.1719 38.6484 85.1719C39.8828 85.1719 40.8984 84.8281 41.6953 84.2266L43.2734 85.8047ZM38.6484 83.8672C36.0234 83.8672 34.875 81.8984 34.875 79.5156C34.875 77.1406 36.0234 75.1641 38.6484 75.1641C41.2812 75.1641 42.4297 77.1406 42.4297 79.5156C42.4297 80.6484 42.1641 81.6484 41.5938 82.4453L39.8828 80.8125L38.9844 81.6328L40.7188 83.2734C40.1953 83.6406 39.5078 83.8672 38.6484 83.8672ZM1.85156 120.133C2.875 120.133 3.71094 119.305 3.71094 118.281C3.71094 117.258 2.875 116.422 1.85156 116.422C0.828125 116.422 0 117.258 0 118.281C0 119.305 0.828125 120.133 1.85156 120.133ZM15.5 122.039H16.8672V117.289H18.6719C20.9297 117.289 22.4531 116.18 22.4531 114.172C22.4531 112.164 20.9062 111 18.6719 111H15.5V122.039ZM16.8672 116V112.289H18.6719C20.2734 112.289 21.0859 112.984 21.0859 114.172C21.0859 115.359 20.3047 116 18.6719 116H16.8672ZM24.1562 122.039H25.4375V118.281C25.4375 116.211 26.5703 115.391 27.5547 115.391C27.8672 115.391 28.1641 115.477 28.4297 115.625L29.0391 114.531C28.6875 114.234 28.2109 114.102 27.75 114.102C26.8359 114.102 25.8203 114.641 25.4453 115.766V114.234H24.1562V122.039ZM30.4062 112.656H31.7891V111H30.4062V112.656ZM30.4375 122.039H31.7578V114.234H30.4375V122.039ZM36.4141 122.039H37.5234L40.7188 114.234H39.2734L36.9688 120.344L34.6719 114.234H33.2266L36.4141 122.039ZM44.8672 114.102C43.4375 114.102 42.5 114.703 41.7422 115.742L42.7578 116.477C43.2266 115.75 43.8906 115.258 44.8828 115.258C46.3594 115.258 46.8594 115.969 46.8672 117.492H44.6562C42.7344 117.492 41.4375 118.109 41.4375 119.727C41.4375 121.273 42.5938 122.172 44.1797 122.172C45.25 122.172 46.3281 121.664 46.8828 120.648L46.9688 122.039H48.0703V117.281C48.0703 115.344 46.9141 114.102 44.8672 114.102ZM44.4375 121.039C43.375 121.039 42.7969 120.531 42.7969 119.773C42.7969 118.984 43.4219 118.461 44.7344 118.461H46.8672V118.969C46.6094 120.141 45.7578 121.039 44.4375 121.039ZM53.3984 122.172C54.875 122.172 56.0312 121.359 56.5234 119.961L55.3203 119.508C55.0391 120.398 54.3203 120.969 53.3828 120.969C51.8203 120.969 51.1406 119.617 51.1406 118.148C51.1406 116.703 51.8203 115.305 53.3828 115.305C54.3125 115.305 55.0312 115.883 55.3438 116.789L56.6016 116.297C56.0234 114.844 54.8438 114.102 53.3828 114.102C50.9688 114.102 49.7969 116.102 49.7969 118.148C49.7969 120.312 51.0547 122.172 53.3984 122.172ZM58.9375 125.391H60.3828L64.7266 114.234H63.2734L61.0078 120.375L58.5312 114.234H57.0703L60.3047 121.906L58.9375 125.391ZM70.5625 122.039H71.9297V117.289H73.7344C75.9922 117.289 77.5156 116.18 77.5156 114.172C77.5156 112.164 75.9688 111 73.7344 111H70.5625V122.039ZM71.9297 116V112.289H73.7344C75.3359 112.289 76.1484 112.984 76.1484 114.172C76.1484 115.359 75.3672 116 73.7344 116H71.9297ZM82.0312 122.172C84.3203 122.172 85.8906 120.352 85.8906 118.117C85.8906 115.898 84.3203 114.102 82.0312 114.102C79.7422 114.102 78.1875 115.898 78.1875 118.117C78.1875 120.352 79.7422 122.172 82.0312 122.172ZM82.0312 121.023C80.4297 121.023 79.5625 119.703 79.5625 118.117C79.5625 116.539 80.4297 115.25 82.0312 115.25C83.6406 115.25 84.5156 116.547 84.5156 118.117C84.5156 119.695 83.6406 121.023 82.0312 121.023ZM89.2891 122.172C89.6641 122.172 90.1328 122.109 90.4922 122.031L90.4844 120.914C90.2578 120.953 90.0391 120.977 89.8828 120.977C89.2422 120.977 89.1094 120.594 89.1094 120.07V111H87.7812V120.422C87.7812 121.617 88.25 122.172 89.2891 122.172ZM92.1562 112.656H93.5391V111H92.1562V112.656ZM92.1875 122.039H93.5078V114.234H92.1875V122.039ZM99.0703 122.172C100.547 122.172 101.703 121.359 102.195 119.961L100.992 119.508C100.711 120.398 99.9922 120.969 99.0547 120.969C97.4922 120.969 96.8125 119.617 96.8125 118.148C96.8125 116.703 97.4922 115.305 99.0547 115.305C99.9844 115.305 100.703 115.883 101.016 116.789L102.273 116.297C101.695 114.844 100.516 114.102 99.0547 114.102C96.6406 114.102 95.4688 116.102 95.4688 118.148C95.4688 120.312 96.7266 122.172 99.0703 122.172ZM104.609 125.391H106.055L110.398 114.234H108.945L106.68 120.375L104.203 114.234H102.742L105.977 121.906L104.609 125.391ZM1.85156 157.133C2.875 157.133 3.71094 156.305 3.71094 155.281C3.71094 154.258 2.875 153.422 1.85156 153.422C0.828125 153.422 0 154.258 0 155.281C0 156.305 0.828125 157.133 1.85156 157.133ZM15.5 159.039H22.7578V157.734H16.875V154.141H22.2266V152.867H16.875V149.266H22.7578V148H15.5V159.039ZM24.9375 154.742H29.2734V153.727H24.9375V154.742ZM33.0469 159.039H34.2656L36.2031 153.078L38.1328 159.039H39.3516L41.6797 151.234H40.2656L38.6719 157.023L36.7891 151.234H35.6172L33.7266 157.031L32.1484 151.234H30.7344L33.0469 159.039ZM45.9609 151.102C44.5312 151.102 43.5938 151.703 42.8359 152.742L43.8516 153.477C44.3203 152.75 44.9844 152.258 45.9766 152.258C47.4531 152.258 47.9531 152.969 47.9609 154.492H45.75C43.8281 154.492 42.5312 155.109 42.5312 156.727C42.5312 158.273 43.6875 159.172 45.2734 159.172C46.3438 159.172 47.4219 158.664 47.9766 157.648L48.0625 159.039H49.1641V154.281C49.1641 152.344 48.0078 151.102 45.9609 151.102ZM45.5312 158.039C44.4688 158.039 43.8906 157.531 43.8906 156.773C43.8906 155.984 44.5156 155.461 45.8281 155.461H47.9609V155.969C47.7031 157.141 46.8516 158.039 45.5312 158.039ZM53.8906 159.172C55.3984 159.172 56.7578 158.375 56.7578 156.734C56.7578 153.789 52.3906 154.852 52.3906 153.164C52.3906 152.578 52.9453 152.156 53.8281 152.156C54.7422 152.156 55.3203 152.68 55.6641 153.305L56.6875 152.75C56.125 151.711 55.1406 151.102 53.875 151.102C52.375 151.102 51.125 151.867 51.125 153.336C51.125 156.141 55.4531 154.945 55.4531 156.797C55.4531 157.484 54.9062 158.062 53.8281 158.062C52.6797 158.062 52.0234 157.344 51.7578 156.602L50.6875 157.07C51.0781 158.258 52.3125 159.172 53.8906 159.172ZM61.2656 159.172C61.75 159.172 62.2188 159.078 62.4688 158.984L62.4609 157.781C62.2344 157.883 61.8516 158 61.4922 158C60.7734 158 60.3594 157.625 60.3594 156.641V152.352H62.4688V151.234H60.3594V148.125L59.0547 149.078V151.234H57.75V152.352H59.0391V156.859C59.0391 158.328 59.8359 159.172 61.2656 159.172ZM67.4375 159.172C68.7109 159.172 69.6484 158.766 70.5156 157.836L69.5938 157.031C68.9453 157.719 68.3047 157.969 67.4453 157.969C65.9844 157.969 65.1953 157.031 65.0938 155.531H70.7109C70.7422 155.414 70.7734 155.102 70.7734 154.812C70.7734 153.203 69.9219 151.102 67.3047 151.102C64.9141 151.102 63.6953 153.023 63.6953 155.172C63.6953 157.367 64.9688 159.172 67.4375 159.172ZM65.0938 154.562C65.2422 153.195 65.9766 152.219 67.2969 152.219C68.6094 152.219 69.2969 153.102 69.4297 154.07C69.4609 154.227 69.4609 154.391 69.4609 154.562H65.0938ZM77.0625 159.039H78.4297V154.289H80.2344C82.4922 154.289 84.0156 153.18 84.0156 151.172C84.0156 149.164 82.4688 148 80.2344 148H77.0625V159.039ZM78.4297 153V149.289H80.2344C81.8359 149.289 82.6484 149.984 82.6484 151.172C82.6484 152.359 81.8672 153 80.2344 153H78.4297ZM88.5312 159.172C90.8203 159.172 92.3906 157.352 92.3906 155.117C92.3906 152.898 90.8203 151.102 88.5312 151.102C86.2422 151.102 84.6875 152.898 84.6875 155.117C84.6875 157.352 86.2422 159.172 88.5312 159.172ZM88.5312 158.023C86.9297 158.023 86.0625 156.703 86.0625 155.117C86.0625 153.539 86.9297 152.25 88.5312 152.25C90.1406 152.25 91.0156 153.547 91.0156 155.117C91.0156 156.695 90.1406 158.023 88.5312 158.023ZM95.7891 159.172C96.1641 159.172 96.6328 159.109 96.9922 159.031L96.9844 157.914C96.7578 157.953 96.5391 157.977 96.3828 157.977C95.7422 157.977 95.6094 157.594 95.6094 157.07V148H94.2812V157.422C94.2812 158.617 94.75 159.172 95.7891 159.172ZM98.6562 149.656H100.039V148H98.6562V149.656ZM98.6875 159.039H100.008V151.234H98.6875V159.039ZM105.57 159.172C107.047 159.172 108.203 158.359 108.695 156.961L107.492 156.508C107.211 157.398 106.492 157.969 105.555 157.969C103.992 157.969 103.312 156.617 103.312 155.148C103.312 153.703 103.992 152.305 105.555 152.305C106.484 152.305 107.203 152.883 107.516 153.789L108.773 153.297C108.195 151.844 107.016 151.102 105.555 151.102C103.141 151.102 101.969 153.102 101.969 155.148C101.969 157.312 103.227 159.172 105.57 159.172ZM111.109 162.391H112.555L116.898 151.234H115.445L113.18 157.375L110.703 151.234H109.242L112.477 158.906L111.109 162.391ZM1.85156 194.133C2.875 194.133 3.71094 193.305 3.71094 192.281C3.71094 191.258 2.875 190.422 1.85156 190.422C0.828125 190.422 0 191.258 0 192.281C0 193.305 0.828125 194.133 1.85156 194.133ZM19.8828 196.172C22.0469 196.172 23.6719 195.109 24.5391 193.109L23.2656 192.586C22.6016 194.18 21.5156 194.859 19.8828 194.859C17.2422 194.859 16.1328 192.938 16.1328 190.453C16.1328 187.938 17.3516 186.164 19.9062 186.164C21.5625 186.164 22.7266 186.828 23.2344 188.414L24.5234 187.898C23.6875 185.898 22.1016 184.852 19.9219 184.852C16.4688 184.852 14.7656 187.312 14.7656 190.508C14.7656 193.695 16.4766 196.172 19.8828 196.172ZM28.9297 188.102C27.5 188.102 26.5625 188.703 25.8047 189.742L26.8203 190.477C27.2891 189.75 27.9531 189.258 28.9453 189.258C30.4219 189.258 30.9219 189.969 30.9297 191.492H28.7188C26.7969 191.492 25.5 192.109 25.5 193.727C25.5 195.273 26.6562 196.172 28.2422 196.172C29.3125 196.172 30.3906 195.664 30.9453 194.648L31.0312 196.039H32.1328V191.281C32.1328 189.344 30.9766 188.102 28.9297 188.102ZM28.5 195.039C27.4375 195.039 26.8594 194.531 26.8594 193.773C26.8594 192.984 27.4844 192.461 28.7969 192.461H30.9297V192.969C30.6719 194.141 29.8203 195.039 28.5 195.039ZM34.5312 196.039H35.8516V191.539C35.8516 190.07 36.6406 189.328 37.8828 189.328C39.0625 189.328 39.6797 190.133 39.6797 191.422V196.039H41V191.18C40.9766 189.508 40.1406 188.102 38.2422 188.102C37.2969 188.102 36.3906 188.531 35.8516 189.422V188.234H34.5312V196.039ZM46.3672 196.172C47.8438 196.172 49 195.359 49.4922 193.961L48.2891 193.508C48.0078 194.398 47.2891 194.969 46.3516 194.969C44.7891 194.969 44.1094 193.617 44.1094 192.148C44.1094 190.703 44.7891 189.305 46.3516 189.305C47.2812 189.305 48 189.883 48.3125 190.789L49.5703 190.297C48.9922 188.844 47.8125 188.102 46.3516 188.102C43.9375 188.102 42.7656 190.102 42.7656 192.148C42.7656 194.312 44.0234 196.172 46.3672 196.172ZM54.3438 196.172C55.6172 196.172 56.5547 195.766 57.4219 194.836L56.5 194.031C55.8516 194.719 55.2109 194.969 54.3516 194.969C52.8906 194.969 52.1016 194.031 52 192.531H57.6172C57.6484 192.414 57.6797 192.102 57.6797 191.812C57.6797 190.203 56.8281 188.102 54.2109 188.102C51.8203 188.102 50.6016 190.023 50.6016 192.172C50.6016 194.367 51.875 196.172 54.3438 196.172ZM52 191.562C52.1484 190.195 52.8828 189.219 54.2031 189.219C55.5156 189.219 56.2031 190.102 56.3359 191.07C56.3672 191.227 56.3672 191.391 56.3672 191.562H52ZM61.0859 196.172C61.4609 196.172 61.9297 196.109 62.2891 196.031L62.2812 194.914C62.0547 194.953 61.8359 194.977 61.6797 194.977C61.0391 194.977 60.9062 194.594 60.9062 194.07V185H59.5781V194.422C59.5781 195.617 60.0469 196.172 61.0859 196.172ZM65.4453 196.172C65.8203 196.172 66.2891 196.109 66.6484 196.031L66.6406 194.914C66.4141 194.953 66.1953 194.977 66.0391 194.977C65.3984 194.977 65.2656 194.594 65.2656 194.07V185H63.9375V194.422C63.9375 195.617 64.4062 196.172 65.4453 196.172ZM71.0234 188.102C69.5938 188.102 68.6562 188.703 67.8984 189.742L68.9141 190.477C69.3828 189.75 70.0469 189.258 71.0391 189.258C72.5156 189.258 73.0156 189.969 73.0234 191.492H70.8125C68.8906 191.492 67.5938 192.109 67.5938 193.727C67.5938 195.273 68.75 196.172 70.3359 196.172C71.4062 196.172 72.4844 195.664 73.0391 194.648L73.125 196.039H74.2266V191.281C74.2266 189.344 73.0703 188.102 71.0234 188.102ZM70.5938 195.039C69.5312 195.039 68.9531 194.531 68.9531 193.773C68.9531 192.984 69.5781 192.461 70.8906 192.461H73.0234V192.969C72.7656 194.141 71.9141 195.039 70.5938 195.039ZM79.0938 196.172C79.5781 196.172 80.0469 196.078 80.2969 195.984L80.2891 194.781C80.0625 194.883 79.6797 195 79.3203 195C78.6016 195 78.1875 194.625 78.1875 193.641V189.352H80.2969V188.234H78.1875V185.125L76.8828 186.078V188.234H75.5781V189.352H76.8672V193.859C76.8672 195.328 77.6641 196.172 79.0938 196.172ZM82.2188 186.656H83.6016V185H82.2188V186.656ZM82.25 196.039H83.5703V188.234H82.25V196.039ZM89.3281 196.172C91.6172 196.172 93.1875 194.352 93.1875 192.117C93.1875 189.898 91.6172 188.102 89.3281 188.102C87.0391 188.102 85.4844 189.898 85.4844 192.117C85.4844 194.352 87.0391 196.172 89.3281 196.172ZM89.3281 195.023C87.7266 195.023 86.8594 193.703 86.8594 192.117C86.8594 190.539 87.7266 189.25 89.3281 189.25C90.9375 189.25 91.8125 190.547 91.8125 192.117C91.8125 193.695 90.9375 195.023 89.3281 195.023ZM95.125 196.039H96.4453V191.539C96.4453 190.07 97.2344 189.328 98.4766 189.328C99.6562 189.328 100.273 190.133 100.273 191.422V196.039H101.594V191.18C101.57 189.508 100.734 188.102 98.8359 188.102C97.8906 188.102 96.9844 188.531 96.4453 189.422V188.234H95.125V196.039ZM116.242 195.742L114.641 193.906C115.211 193.039 115.562 191.969 115.641 190.773L114.352 190.648C114.32 191.484 114.117 192.266 113.781 192.93L111.578 190.406C112.82 189.688 113.938 188.852 113.938 187.414C113.938 185.984 112.703 184.891 111.172 184.891C109.648 184.891 108.25 185.875 108.25 187.422C108.25 188.609 109.219 189.641 109.68 190.148C108.312 190.891 107 191.789 107 193.5C107 195.211 108.469 196.18 110.453 196.18C111.789 196.18 112.945 195.695 113.828 194.867L115.305 196.578L116.242 195.742ZM109.531 187.445C109.531 186.516 110.258 185.93 111.18 185.93C112.117 185.93 112.711 186.609 112.711 187.438C112.711 188.406 111.812 189 110.727 189.586C110.359 189.148 109.531 188.219 109.531 187.445ZM110.422 195.055C109.125 195.055 108.281 194.5 108.281 193.523C108.281 192.367 109.32 191.672 110.508 191.008L113.055 193.961C112.391 194.641 111.5 195.055 110.422 195.055ZM122.062 196.039H123.438V191.141H124.719C124.953 191.141 125.203 191.141 125.422 191.125L128.25 196.039H129.82L126.758 190.992C128.125 190.617 129.039 189.594 129.039 188.133C129.039 186.133 127.422 185 125.312 185H122.062V196.039ZM123.453 190.016V186.234H125.32C126.781 186.234 127.672 186.953 127.672 188.156C127.672 189.305 126.852 189.977 125.43 190.016H123.453ZM134.453 196.172C135.727 196.172 136.664 195.766 137.531 194.836L136.609 194.031C135.961 194.719 135.32 194.969 134.461 194.969C133 194.969 132.211 194.031 132.109 192.531H137.727C137.758 192.414 137.789 192.102 137.789 191.812C137.789 190.203 136.938 188.102 134.32 188.102C131.93 188.102 130.711 190.023 130.711 192.172C130.711 194.367 131.984 196.172 134.453 196.172ZM132.109 191.562C132.258 190.195 132.992 189.219 134.312 189.219C135.625 189.219 136.312 190.102 136.445 191.07C136.477 191.227 136.477 191.391 136.477 191.562H132.109ZM142.234 196.172C142.719 196.172 143.188 196.078 143.438 195.984L143.43 194.781C143.203 194.883 142.82 195 142.461 195C141.742 195 141.328 194.625 141.328 193.641V189.352H143.438V188.234H141.328V185.125L140.023 186.078V188.234H138.719V189.352H140.008V193.859C140.008 195.328 140.805 196.172 142.234 196.172ZM147.961 196.172C148.906 196.172 149.828 195.742 150.359 194.852V196.039H151.672V188.234H150.359V192.734C150.359 194.195 149.562 194.945 148.32 194.945C147.141 194.945 146.523 194.141 146.523 192.852V188.234H145.211V193.086C145.234 194.758 146.062 196.172 147.961 196.172ZM154.297 196.039H155.578V192.281C155.578 190.211 156.711 189.391 157.695 189.391C158.008 189.391 158.305 189.477 158.57 189.625L159.18 188.531C158.828 188.234 158.352 188.102 157.891 188.102C156.977 188.102 155.961 188.641 155.586 189.766V188.234H154.297V196.039ZM160.578 196.039H161.898V191.539C161.898 190.07 162.688 189.328 163.93 189.328C165.109 189.328 165.727 190.133 165.727 191.422V196.039H167.047V191.18C167.023 189.508 166.188 188.102 164.289 188.102C163.344 188.102 162.438 188.531 161.898 189.422V188.234H160.578V196.039ZM173.812 196.039H175.18V191.289H176.984C179.242 191.289 180.766 190.18 180.766 188.172C180.766 186.164 179.219 185 176.984 185H173.812V196.039ZM175.18 190V186.289H176.984C178.586 186.289 179.398 186.984 179.398 188.172C179.398 189.359 178.617 190 176.984 190H175.18ZM185.281 196.172C187.57 196.172 189.141 194.352 189.141 192.117C189.141 189.898 187.57 188.102 185.281 188.102C182.992 188.102 181.438 189.898 181.438 192.117C181.438 194.352 182.992 196.172 185.281 196.172ZM185.281 195.023C183.68 195.023 182.812 193.703 182.812 192.117C182.812 190.539 183.68 189.25 185.281 189.25C186.891 189.25 187.766 190.547 187.766 192.117C187.766 193.695 186.891 195.023 185.281 195.023ZM192.539 196.172C192.914 196.172 193.383 196.109 193.742 196.031L193.734 194.914C193.508 194.953 193.289 194.977 193.133 194.977C192.492 194.977 192.359 194.594 192.359 194.07V185H191.031V194.422C191.031 195.617 191.5 196.172 192.539 196.172ZM195.406 186.656H196.789V185H195.406V186.656ZM195.438 196.039H196.758V188.234H195.438V196.039ZM202.32 196.172C203.797 196.172 204.953 195.359 205.445 193.961L204.242 193.508C203.961 194.398 203.242 194.969 202.305 194.969C200.742 194.969 200.062 193.617 200.062 192.148C200.062 190.703 200.742 189.305 202.305 189.305C203.234 189.305 203.953 189.883 204.266 190.789L205.523 190.297C204.945 188.844 203.766 188.102 202.305 188.102C199.891 188.102 198.719 190.102 198.719 192.148C198.719 194.312 199.977 196.172 202.32 196.172ZM207.859 199.391H209.305L213.648 188.234H212.195L209.93 194.375L207.453 188.234H205.992L209.227 195.906L207.859 199.391Z" fill="white"/>
</svg>
