<svg width="163" height="42" viewBox="0 0 163 42" fill="none" xmlns="http://www.w3.org/2000/svg">
<path d="M39.1484 36.1484H40.375V32.7344H43.7969V31.5078H40.375V28.0859H39.1484V31.5078H35.7344V32.7344H39.1484V36.1484ZM49.0938 25.9609V26.7266C49.0938 27.4141 48.7031 27.7031 47.9922 27.7031H46.3906V28.9844H49.0312V37H50.6797V25.9609H49.0938ZM61.0391 35.4766C62.9453 34.3672 65.6094 31.7812 65.6094 29.1875C65.6094 27.0312 64.1484 25.8281 62.1328 25.8281C59.7656 25.8281 58.3984 27.6875 58.3984 29.7656L60.0391 29.875C60.0781 28.5703 60.625 27.3359 62.1484 27.3359C63.3594 27.3359 63.9297 28.1172 63.9297 29.1484C63.9297 31.9141 60.5156 34.3047 58.3438 35.6328V37H66.1719V35.4766H61.0391ZM71.4766 37.1484C74.3672 37.1484 75.2188 34.25 75.2188 31.5C75.2188 28.7344 74.3359 25.7969 71.3672 25.7969C68.1016 25.7969 67.6172 29.1094 67.6172 31.4766C67.6172 33.8359 68.1328 37.1484 71.4766 37.1484ZM71.4375 35.5625C69.4688 35.5625 69.2656 33.3516 69.2656 31.4766C69.2656 29.5938 69.4688 27.4141 71.3672 27.4141C73.2266 27.4141 73.4844 29.5234 73.4844 31.4688C73.4844 33.375 73.2422 35.5625 71.4375 35.5625ZM79.3828 35.4766C81.2891 34.3672 83.9531 31.7812 83.9531 29.1875C83.9531 27.0312 82.4922 25.8281 80.4766 25.8281C78.1094 25.8281 76.7422 27.6875 76.7422 29.7656L78.3828 29.875C78.4219 28.5703 78.9688 27.3359 80.4922 27.3359C81.7031 27.3359 82.2734 28.1172 82.2734 29.1484C82.2734 31.9141 78.8594 34.3047 76.6875 35.6328V37H84.5156V35.4766H79.3828ZM86.3359 32.8672H90.7812V31.6406H86.3359V32.8672ZM96.5781 25.8125C94.4141 25.8125 92.6562 27.5156 92.6562 29.6016C92.6562 31.3047 93.8359 32.7188 95.375 33.1719C95.8984 33.3359 96.4531 33.375 97 33.2969L94.6953 37H96.6094L99.9141 31.6094C100.273 31.0234 100.516 30.3438 100.516 29.5859C100.516 27.5156 98.75 25.8125 96.5781 25.8125ZM96.5781 31.8359C95.3125 31.8359 94.2969 30.8281 94.2969 29.6094C94.2969 28.3828 95.3125 27.375 96.5781 27.375C97.8516 27.375 98.875 28.3828 98.875 29.6016C98.875 30.8281 97.8516 31.8359 96.5781 31.8359ZM105.688 25.9609V26.7266C105.688 27.4141 105.297 27.7031 104.586 27.7031H102.984V28.9844H105.625V37H107.273V25.9609H105.688ZM114.867 37.1484C116.891 37.1484 118.82 36.0703 118.82 33.8438C118.82 32.5859 118.188 31.5781 117.062 31.0234C117.789 30.5234 118.25 29.7109 118.25 28.75C118.25 26.9141 116.656 25.8125 114.875 25.8125C113.148 25.8125 111.5 26.8672 111.5 28.7422C111.5 29.6797 111.922 30.4922 112.68 31.0234C111.609 31.5547 110.914 32.5547 110.914 33.8594C110.914 36.0547 112.836 37.1484 114.867 37.1484ZM114.906 30.5391C113.844 30.5391 113.156 29.8594 113.156 28.8281C113.156 27.75 113.977 27.2109 114.898 27.2109C115.906 27.2109 116.648 27.8359 116.648 28.8828C116.648 29.9141 115.914 30.5391 114.906 30.5391ZM114.859 35.7031C113.633 35.7031 112.555 35.0547 112.555 33.6719C112.555 32.3984 113.516 31.6406 114.859 31.6406C116.18 31.6406 117.156 32.3984 117.156 33.6875C117.156 35.0547 116.102 35.7031 114.859 35.7031ZM120.648 32.8672H125.094V31.6406H120.648V32.8672ZM129.68 35.4766C131.586 34.3672 134.25 31.7812 134.25 29.1875C134.25 27.0312 132.789 25.8281 130.773 25.8281C128.406 25.8281 127.039 27.6875 127.039 29.7656L128.68 29.875C128.719 28.5703 129.266 27.3359 130.789 27.3359C132 27.3359 132.57 28.1172 132.57 29.1484C132.57 31.9141 129.156 34.3047 126.984 35.6328V37H134.812V35.4766H129.68ZM140.016 25.9609V26.7266C140.016 27.4141 139.625 27.7031 138.914 27.7031H137.312V28.9844H139.953V37H141.602V25.9609H140.016ZM149.117 37.1484C151.273 37.1484 153.133 35.9688 153.133 33.7891C153.133 32.4453 152.344 31.4609 150.852 31.1016C151.984 30.6562 152.539 29.8125 152.539 28.7734C152.539 26.9297 150.914 25.8125 149.086 25.8125C147.195 25.8125 145.625 27 145.625 29.0156L147.211 29.1172C147.227 28.0391 147.984 27.375 149.109 27.375C150.141 27.375 150.93 27.9375 150.93 28.9766C150.93 30.0312 150.383 30.5625 148.609 30.5625V31.8594C149.93 31.8594 151.531 31.9766 151.531 33.6562C151.531 34.9375 150.438 35.6016 149.148 35.6016C147.727 35.6016 146.703 34.8203 146.703 33.4844L145.102 33.5781C145.102 35.9375 146.922 37.1484 149.117 37.1484ZM157.195 35.4766C159.102 34.3672 161.766 31.7812 161.766 29.1875C161.766 27.0312 160.305 25.8281 158.289 25.8281C155.922 25.8281 154.555 27.6875 154.555 29.7656L156.195 29.875C156.234 28.5703 156.781 27.3359 158.305 27.3359C159.516 27.3359 160.086 28.1172 160.086 29.1484C160.086 31.9141 156.672 34.3047 154.5 35.6328V37H162.328V35.4766H157.195Z" fill="white"/>
<path d="M38.7031 15H40.0703L42.7656 6.74219L45.4609 15H46.8203L50.0469 3.96094H48.6172L46.0469 13.0078L43.3125 4.57031H42.2188L39.4766 13.0078L36.9062 3.96094H35.4766L38.7031 15ZM51.8594 15H53.2031V10.7109C53.2031 9.28906 53.9297 8.26562 55.2656 8.26562C56.5547 8.26562 57.0078 9.13281 57.0078 10.3828V15H58.3516V10.1406C58.3281 8.46875 57.4688 7.0625 55.5703 7.0625C54.625 7.0625 53.7344 7.49219 53.2031 8.38281V3.96094H51.8594V15ZM63.4766 7.0625C62.0469 7.0625 61.1094 7.66406 60.3516 8.70312L61.3672 9.4375C61.8359 8.71094 62.5 8.21875 63.4922 8.21875C64.9688 8.21875 65.4688 8.92969 65.4766 10.4531H63.2656C61.3438 10.4531 60.0469 11.0703 60.0469 12.6875C60.0469 14.2344 61.2031 15.1328 62.7891 15.1328C63.8594 15.1328 64.9375 14.625 65.4922 13.6094L65.5781 15H66.6797V10.2422C66.6797 8.30469 65.5234 7.0625 63.4766 7.0625ZM63.0469 14C61.9844 14 61.4062 13.4922 61.4062 12.7344C61.4062 11.9453 62.0312 11.4219 63.3438 11.4219H65.4766V11.9297C65.2188 13.1016 64.3672 14 63.0469 14ZM71.5469 15.1328C72.0312 15.1328 72.5 15.0391 72.75 14.9453L72.7422 13.7422C72.5156 13.8438 72.1328 13.9609 71.7734 13.9609C71.0547 13.9609 70.6406 13.5859 70.6406 12.6016V8.3125H72.75V7.19531H70.6406V4.08594L69.3359 5.03906V7.19531H68.0312V8.3125H69.3203V12.8203C69.3203 14.2891 70.1172 15.1328 71.5469 15.1328ZM77.1875 15.1328C78.6953 15.1328 80.0547 14.3359 80.0547 12.6953C80.0547 9.75 75.6875 10.8125 75.6875 9.125C75.6875 8.53906 76.2422 8.11719 77.125 8.11719C78.0391 8.11719 78.6172 8.64062 78.9609 9.26562L79.9844 8.71094C79.4219 7.67188 78.4375 7.0625 77.1719 7.0625C75.6719 7.0625 74.4219 7.82812 74.4219 9.29688C74.4219 12.1016 78.75 10.9062 78.75 12.7578C78.75 13.4453 78.2031 14.0234 77.125 14.0234C75.9766 14.0234 75.3203 13.3047 75.0547 12.5625L73.9844 13.0312C74.375 14.2188 75.6094 15.1328 77.1875 15.1328ZM85.1562 15H86.6562L87.5938 12.4219H92.2422L93.1641 15H94.6562L90.4531 3.96094H89.3594L85.1562 15ZM88.0234 11.2422L89.9141 5.92969L91.8125 11.2422H88.0234ZM96.3281 18.2344H97.6953V13.5938C98.2031 14.5781 99.1797 15.1328 100.281 15.1328C102.422 15.1328 103.617 13.3047 103.617 11.1016C103.617 8.90625 102.422 7.0625 100.305 7.0625C99.2109 7.0625 98.2031 7.61719 97.6953 8.60156V7.19531H96.3281V18.2344ZM99.9844 13.9297C98.4609 13.9297 97.5781 12.7031 97.5781 11.1016C97.5781 9.49219 98.4609 8.28906 99.9844 8.28906C101.508 8.28906 102.289 9.51562 102.289 11.1016C102.289 12.6875 101.508 13.9297 99.9844 13.9297ZM105.641 18.2344H107.008V13.5938C107.516 14.5781 108.492 15.1328 109.594 15.1328C111.734 15.1328 112.93 13.3047 112.93 11.1016C112.93 8.90625 111.734 7.0625 109.617 7.0625C108.523 7.0625 107.516 7.61719 107.008 8.60156V7.19531H105.641V18.2344ZM109.297 13.9297C107.773 13.9297 106.891 12.7031 106.891 11.1016C106.891 9.49219 107.773 8.28906 109.297 8.28906C110.82 8.28906 111.602 9.51562 111.602 11.1016C111.602 12.6875 110.82 13.9297 109.297 13.9297Z" fill="white"/>
<path d="M16.7226 14.0602C16.4672 13.9289 15.1945 13.3055 14.9578 13.2211C14.7211 13.132 14.5476 13.0898 14.3765 13.3523C14.2031 13.6125 13.7109 14.1914 13.5562 14.3672C13.4062 14.5406 13.2539 14.5617 12.9984 14.4328C11.4797 13.6734 10.4836 13.0781 9.48279 11.3602C9.21794 10.9031 9.74763 10.9359 10.2422 9.94922C10.3265 9.77578 10.2844 9.62813 10.2187 9.49688C10.1531 9.36563 9.63748 8.09531 9.42185 7.57734C9.21326 7.07344 8.99763 7.14375 8.8406 7.13437C8.6906 7.125 8.51951 7.125 8.34607 7.125C8.17263 7.125 7.89373 7.19063 7.65701 7.44609C7.42029 7.70625 6.75232 8.33203 6.75232 9.60234C6.75232 10.8727 7.6781 12.1031 7.80466 12.2766C7.93591 12.45 9.62576 15.0563 12.2203 16.1789C13.8609 16.8867 14.5031 16.9477 15.3234 16.8258C15.8226 16.7508 16.8515 16.2023 17.0648 15.5953C17.2781 14.9906 17.2781 14.4727 17.2148 14.3648C17.1515 14.25 16.9781 14.1844 16.7226 14.0602Z" fill="white"/>
<path d="M21.6844 7.93125C21.1547 6.67266 20.3953 5.54297 19.4274 4.57266C18.4594 3.60469 17.3297 2.84297 16.0688 2.31563C14.7797 1.77422 13.4109 1.5 12 1.5H11.9531C10.5328 1.50703 9.15704 1.78828 7.86329 2.34141C6.61407 2.87578 5.49376 3.63516 4.53517 4.60312C3.57657 5.57109 2.82423 6.69609 2.30392 7.95C1.76485 9.24844 1.49298 10.6289 1.50001 12.0492C1.50704 13.6758 1.8961 15.2906 2.62501 16.7344V20.2969C2.62501 20.8922 3.10782 21.375 3.70314 21.375H7.26798C8.71173 22.1039 10.3266 22.493 11.9531 22.5H12.0024C13.4063 22.5 14.768 22.2281 16.05 21.6961C17.3039 21.1734 18.4313 20.4234 19.3969 19.4648C20.3649 18.5063 21.1266 17.3859 21.6586 16.1367C22.2117 14.843 22.493 13.4672 22.5 12.0469C22.507 10.6195 22.2305 9.23438 21.6844 7.93125ZM18.143 18.1969C16.5 19.8234 14.3203 20.7188 12 20.7188H11.9602C10.5469 20.7117 9.14298 20.3602 7.90314 19.6992L7.70626 19.5938H4.40626V16.2938L4.30079 16.0969C3.63985 14.857 3.28829 13.4531 3.28126 12.0398C3.27189 9.70312 4.16485 7.50937 5.80314 5.85703C7.43907 4.20469 9.62579 3.29062 11.9625 3.28125H12.0024C13.1742 3.28125 14.3109 3.50859 15.382 3.95859C16.4274 4.39687 17.3649 5.02734 18.1711 5.83359C18.975 6.6375 19.6078 7.57734 20.0461 8.62266C20.5008 9.70547 20.7281 10.8539 20.7234 12.0398C20.7094 14.3742 19.793 16.5609 18.143 18.1969Z" fill="white"/>
</svg>
