<svg width="163" height="43" viewBox="0 0 163 43" fill="none" xmlns="http://www.w3.org/2000/svg">
<path d="M39.1484 37.1484H40.375V33.7344H43.7969V32.5078H40.375V29.0859H39.1484V32.5078H35.7344V33.7344H39.1484V37.1484ZM49.0938 26.9609V27.7266C49.0938 28.4141 48.7031 28.7031 47.9922 28.7031H46.3906V29.9844H49.0312V38H50.6797V26.9609H49.0938ZM61.0391 36.4766C62.9453 35.3672 65.6094 32.7812 65.6094 30.1875C65.6094 28.0312 64.1484 26.8281 62.1328 26.8281C59.7656 26.8281 58.3984 28.6875 58.3984 30.7656L60.0391 30.875C60.0781 29.5703 60.625 28.3359 62.1484 28.3359C63.3594 28.3359 63.9297 29.1172 63.9297 30.1484C63.9297 32.9141 60.5156 35.3047 58.3438 36.6328V38H66.1719V36.4766H61.0391ZM71.4766 38.1484C74.3672 38.1484 75.2188 35.25 75.2188 32.5C75.2188 29.7344 74.3359 26.7969 71.3672 26.7969C68.1016 26.7969 67.6172 30.1094 67.6172 32.4766C67.6172 34.8359 68.1328 38.1484 71.4766 38.1484ZM71.4375 36.5625C69.4688 36.5625 69.2656 34.3516 69.2656 32.4766C69.2656 30.5938 69.4688 28.4141 71.3672 28.4141C73.2266 28.4141 73.4844 30.5234 73.4844 32.4688C73.4844 34.375 73.2422 36.5625 71.4375 36.5625ZM79.3828 36.4766C81.2891 35.3672 83.9531 32.7812 83.9531 30.1875C83.9531 28.0312 82.4922 26.8281 80.4766 26.8281C78.1094 26.8281 76.7422 28.6875 76.7422 30.7656L78.3828 30.875C78.4219 29.5703 78.9688 28.3359 80.4922 28.3359C81.7031 28.3359 82.2734 29.1172 82.2734 30.1484C82.2734 32.9141 78.8594 35.3047 76.6875 36.6328V38H84.5156V36.4766H79.3828ZM86.3359 33.8672H90.7812V32.6406H86.3359V33.8672ZM96.5781 26.8125C94.4141 26.8125 92.6562 28.5156 92.6562 30.6016C92.6562 32.3047 93.8359 33.7188 95.375 34.1719C95.8984 34.3359 96.4531 34.375 97 34.2969L94.6953 38H96.6094L99.9141 32.6094C100.273 32.0234 100.516 31.3438 100.516 30.5859C100.516 28.5156 98.75 26.8125 96.5781 26.8125ZM96.5781 32.8359C95.3125 32.8359 94.2969 31.8281 94.2969 30.6094C94.2969 29.3828 95.3125 28.375 96.5781 28.375C97.8516 28.375 98.875 29.3828 98.875 30.6016C98.875 31.8281 97.8516 32.8359 96.5781 32.8359ZM105.688 26.9609V27.7266C105.688 28.4141 105.297 28.7031 104.586 28.7031H102.984V29.9844H105.625V38H107.273V26.9609H105.688ZM114.867 38.1484C116.891 38.1484 118.82 37.0703 118.82 34.8438C118.82 33.5859 118.188 32.5781 117.062 32.0234C117.789 31.5234 118.25 30.7109 118.25 29.75C118.25 27.9141 116.656 26.8125 114.875 26.8125C113.148 26.8125 111.5 27.8672 111.5 29.7422C111.5 30.6797 111.922 31.4922 112.68 32.0234C111.609 32.5547 110.914 33.5547 110.914 34.8594C110.914 37.0547 112.836 38.1484 114.867 38.1484ZM114.906 31.5391C113.844 31.5391 113.156 30.8594 113.156 29.8281C113.156 28.75 113.977 28.2109 114.898 28.2109C115.906 28.2109 116.648 28.8359 116.648 29.8828C116.648 30.9141 115.914 31.5391 114.906 31.5391ZM114.859 36.7031C113.633 36.7031 112.555 36.0547 112.555 34.6719C112.555 33.3984 113.516 32.6406 114.859 32.6406C116.18 32.6406 117.156 33.3984 117.156 34.6875C117.156 36.0547 116.102 36.7031 114.859 36.7031ZM120.648 33.8672H125.094V32.6406H120.648V33.8672ZM129.68 36.4766C131.586 35.3672 134.25 32.7812 134.25 30.1875C134.25 28.0312 132.789 26.8281 130.773 26.8281C128.406 26.8281 127.039 28.6875 127.039 30.7656L128.68 30.875C128.719 29.5703 129.266 28.3359 130.789 28.3359C132 28.3359 132.57 29.1172 132.57 30.1484C132.57 32.9141 129.156 35.3047 126.984 36.6328V38H134.812V36.4766H129.68ZM140.016 26.9609V27.7266C140.016 28.4141 139.625 28.7031 138.914 28.7031H137.312V29.9844H139.953V38H141.602V26.9609H140.016ZM149.117 38.1484C151.273 38.1484 153.133 36.9688 153.133 34.7891C153.133 33.4453 152.344 32.4609 150.852 32.1016C151.984 31.6562 152.539 30.8125 152.539 29.7734C152.539 27.9297 150.914 26.8125 149.086 26.8125C147.195 26.8125 145.625 28 145.625 30.0156L147.211 30.1172C147.227 29.0391 147.984 28.375 149.109 28.375C150.141 28.375 150.93 28.9375 150.93 29.9766C150.93 31.0312 150.383 31.5625 148.609 31.5625V32.8594C149.93 32.8594 151.531 32.9766 151.531 34.6562C151.531 35.9375 150.438 36.6016 149.148 36.6016C147.727 36.6016 146.703 35.8203 146.703 34.4844L145.102 34.5781C145.102 36.9375 146.922 38.1484 149.117 38.1484ZM157.195 36.4766C159.102 35.3672 161.766 32.7812 161.766 30.1875C161.766 28.0312 160.305 26.8281 158.289 26.8281C155.922 26.8281 154.555 28.6875 154.555 30.7656L156.195 30.875C156.234 29.5703 156.781 28.3359 158.305 28.3359C159.516 28.3359 160.086 29.1172 160.086 30.1484C160.086 32.9141 156.672 35.3047 154.5 36.6328V38H162.328V36.4766H157.195Z" fill="white"/>
<path d="M41.0234 16.1328C43.1875 16.1328 44.8125 15.0703 45.6797 13.0703L44.4062 12.5469C43.7422 14.1406 42.6562 14.8203 41.0234 14.8203C38.3828 14.8203 37.2734 12.8984 37.2734 10.4141C37.2734 7.89844 38.4922 6.125 41.0469 6.125C42.7031 6.125 43.8672 6.78906 44.375 8.375L45.6641 7.85938C44.8281 5.85938 43.2422 4.8125 41.0625 4.8125C37.6094 4.8125 35.9062 7.27344 35.9062 10.4688C35.9062 13.6562 37.6172 16.1328 41.0234 16.1328ZM50.0703 8.0625C48.6406 8.0625 47.7031 8.66406 46.9453 9.70312L47.9609 10.4375C48.4297 9.71094 49.0938 9.21875 50.0859 9.21875C51.5625 9.21875 52.0625 9.92969 52.0703 11.4531H49.8594C47.9375 11.4531 46.6406 12.0703 46.6406 13.6875C46.6406 15.2344 47.7969 16.1328 49.3828 16.1328C50.4531 16.1328 51.5312 15.625 52.0859 14.6094L52.1719 16H53.2734V11.2422C53.2734 9.30469 52.1172 8.0625 50.0703 8.0625ZM49.6406 15C48.5781 15 48 14.4922 48 13.7344C48 12.9453 48.625 12.4219 49.9375 12.4219H52.0703V12.9297C51.8125 14.1016 50.9609 15 49.6406 15ZM57.1328 16.1328C57.5078 16.1328 57.9766 16.0703 58.3359 15.9922L58.3281 14.875C58.1016 14.9141 57.8828 14.9375 57.7266 14.9375C57.0859 14.9375 56.9531 14.5547 56.9531 14.0312V4.96094H55.625V14.3828C55.625 15.5781 56.0938 16.1328 57.1328 16.1328ZM61.4922 16.1328C61.8672 16.1328 62.3359 16.0703 62.6953 15.9922L62.6875 14.875C62.4609 14.9141 62.2422 14.9375 62.0859 14.9375C61.4453 14.9375 61.3125 14.5547 61.3125 14.0312V4.96094H59.9844V14.3828C59.9844 15.5781 60.4531 16.1328 61.4922 16.1328ZM72.5312 16.1328C75.2969 16.1328 76.5781 14.4609 76.5781 11.7266V4.96094H75.2031V11.625C75.2031 13.6641 74.4766 14.7969 72.5312 14.7969C70.6016 14.7969 69.875 13.6719 69.875 11.6562V4.96094H68.5V11.8047C68.5 14.4766 69.7734 16.1328 72.5312 16.1328ZM81.5938 16.1328C83.1016 16.1328 84.4609 15.3359 84.4609 13.6953C84.4609 10.75 80.0938 11.8125 80.0938 10.125C80.0938 9.53906 80.6484 9.11719 81.5312 9.11719C82.4453 9.11719 83.0234 9.64062 83.3672 10.2656L84.3906 9.71094C83.8281 8.67188 82.8438 8.0625 81.5781 8.0625C80.0781 8.0625 78.8281 8.82812 78.8281 10.2969C78.8281 13.1016 83.1562 11.9062 83.1562 13.7578C83.1562 14.4453 82.6094 15.0234 81.5312 15.0234C80.3828 15.0234 79.7266 14.3047 79.4609 13.5625L78.3906 14.0312C78.7812 15.2188 80.0156 16.1328 81.5938 16.1328Z" fill="white"/>
<path fill-rule="evenodd" clip-rule="evenodd" d="M11.5317 12.4724C15.5208 16.4604 16.4258 11.8467 18.9656 14.3848C21.4143 16.8328 22.8216 17.3232 19.7192 20.4247C19.3306 20.737 16.8616 24.4943 8.1846 15.8197C-0.493478 7.144 3.26158 4.67244 3.57397 4.28395C6.68387 1.17385 7.16586 2.58938 9.61449 5.03733C12.1544 7.5765 7.54266 8.48441 11.5317 12.4724Z" stroke="white" stroke-width="1.5" stroke-linecap="round" stroke-linejoin="round"/>
<path d="M14.353 6.04297C16.124 6.38697 17.508 7.77197 17.853 9.54297" stroke="white" stroke-width="1.5" stroke-linecap="round" stroke-linejoin="round"/>
</svg>
